G04 #@! TF.GenerationSoftware,KiCad,Pcbnew,(5.1.4)-1*
G04 #@! TF.CreationDate,2020-10-19T13:56:17-03:00*
G04 #@! TF.ProjectId,VELOCISTA,56454c4f-4349-4535-9441-2e6b69636164,rev?*
G04 #@! TF.SameCoordinates,Original*
G04 #@! TF.FileFunction,Profile,NP*
%FSLAX46Y46*%
G04 Gerber Fmt 4.6, Leading zero omitted, Abs format (unit mm)*
G04 Created by KiCad (PCBNEW (5.1.4)-1) date 2020-10-19 13:56:17*
%MOMM*%
%LPD*%
G04 APERTURE LIST*
%ADD10C,0.150000*%
G04 APERTURE END LIST*
D10*
X137000000Y-142000000D02*
G75*
G03X137000000Y-142000000I-1000000J0D01*
G01*
X143000000Y-148000000D02*
G75*
G03X143000000Y-148000000I-1000000J0D01*
G01*
X149000000Y-142000000D02*
G75*
G03X149000000Y-142000000I-1000000J0D01*
G01*
X143000000Y-136000000D02*
G75*
G03X143000000Y-136000000I-1000000J0D01*
G01*
X53000000Y-142000000D02*
G75*
G03X53000000Y-142000000I-1000000J0D01*
G01*
X65000000Y-142000000D02*
G75*
G03X65000000Y-142000000I-1000000J0D01*
G01*
X59000000Y-148000000D02*
G75*
G03X59000000Y-148000000I-1000000J0D01*
G01*
X59000000Y-136000000D02*
G75*
G03X59000000Y-136000000I-1000000J0D01*
G01*
X145605551Y-142000000D02*
G75*
G03X145605551Y-142000000I-3605551J0D01*
G01*
X61605551Y-142000000D02*
G75*
G03X61605551Y-142000000I-3605551J0D01*
G01*
X132000000Y-124000000D02*
X135000000Y-127000000D01*
X132000000Y-124000000D02*
X118000000Y-124000000D01*
X65000000Y-127000000D02*
X50500000Y-127000000D01*
X68000000Y-124000000D02*
X65000000Y-127000000D01*
X69000000Y-67000000D02*
X53000000Y-67000000D01*
X69000000Y-67000000D02*
X69000000Y-65000000D01*
X71000000Y-65000000D02*
X69000000Y-65000000D01*
X71000000Y-65000000D02*
X71000000Y-67000000D01*
X69000000Y-48000000D02*
X60000000Y-48000000D01*
X69000000Y-50000000D02*
X69000000Y-48000000D01*
X71000000Y-50000000D02*
X69000000Y-50000000D01*
X71000000Y-48000000D02*
X71000000Y-50000000D01*
X159000000Y-64000000D02*
X140000000Y-48000000D01*
X131000000Y-48000000D02*
X140000000Y-48000000D01*
X131000000Y-50000000D02*
X131000000Y-48000000D01*
X129000000Y-50000000D02*
X131000000Y-50000000D01*
X129000000Y-48000000D02*
X129000000Y-50000000D01*
X131000000Y-65000000D02*
X131000000Y-67000000D01*
X129000000Y-65000000D02*
X131000000Y-65000000D01*
X129000000Y-67000000D02*
X129000000Y-65000000D01*
X147000000Y-67000000D02*
X165000000Y-79000000D01*
X53000000Y-67000000D02*
X35000000Y-79000000D01*
X90000000Y-67000000D02*
X71000000Y-67000000D01*
X110000000Y-116000000D02*
X110000000Y-67000000D01*
X90000000Y-67000000D02*
X90000000Y-116000000D01*
X110000000Y-67000000D02*
X129000000Y-67000000D01*
X159000000Y-64000000D02*
X165000000Y-79000000D01*
X131000000Y-67000000D02*
X147000000Y-67000000D01*
X133000000Y-167000000D02*
X67000000Y-167000000D01*
X143000000Y-157000000D02*
X133000000Y-167000000D01*
X149500000Y-157000000D02*
X143000000Y-157000000D01*
X57000000Y-157000000D02*
X67000000Y-167000000D01*
X50500000Y-157000000D02*
X57000000Y-157000000D01*
X50500000Y-127000000D02*
X50500000Y-157000000D01*
X149500000Y-127000000D02*
X149500000Y-157000000D01*
X149500000Y-127000000D02*
X135000000Y-127000000D01*
X82000000Y-124000000D02*
X68000000Y-124000000D01*
X90000000Y-116000000D02*
X82000000Y-124000000D01*
X110000000Y-116000000D02*
X118000000Y-124000000D01*
X60000000Y-48000000D02*
X41000000Y-64000000D01*
X41000000Y-64000000D02*
X35000000Y-79000000D01*
X71000000Y-48000000D02*
X129000000Y-48000000D01*
M02*
