G04 #@! TF.GenerationSoftware,KiCad,Pcbnew,(5.1.4)-1*
G04 #@! TF.CreationDate,2020-10-19T13:56:17-03:00*
G04 #@! TF.ProjectId,VELOCISTA,56454c4f-4349-4535-9441-2e6b69636164,rev?*
G04 #@! TF.SameCoordinates,Original*
G04 #@! TF.FileFunction,Soldermask,Top*
G04 #@! TF.FilePolarity,Negative*
%FSLAX46Y46*%
G04 Gerber Fmt 4.6, Leading zero omitted, Abs format (unit mm)*
G04 Created by KiCad (PCBNEW (5.1.4)-1) date 2020-10-19 13:56:17*
%MOMM*%
%LPD*%
G04 APERTURE LIST*
%ADD10C,0.150000*%
%ADD11C,0.300000*%
%ADD12C,0.100000*%
G04 APERTURE END LIST*
D10*
X137000000Y-142000000D02*
G75*
G03X137000000Y-142000000I-1000000J0D01*
G01*
X143000000Y-148000000D02*
G75*
G03X143000000Y-148000000I-1000000J0D01*
G01*
X149000000Y-142000000D02*
G75*
G03X149000000Y-142000000I-1000000J0D01*
G01*
X143000000Y-136000000D02*
G75*
G03X143000000Y-136000000I-1000000J0D01*
G01*
X53000000Y-142000000D02*
G75*
G03X53000000Y-142000000I-1000000J0D01*
G01*
X65000000Y-142000000D02*
G75*
G03X65000000Y-142000000I-1000000J0D01*
G01*
X59000000Y-148000000D02*
G75*
G03X59000000Y-148000000I-1000000J0D01*
G01*
X59000000Y-136000000D02*
G75*
G03X59000000Y-136000000I-1000000J0D01*
G01*
X145605551Y-142000000D02*
G75*
G03X145605551Y-142000000I-3605551J0D01*
G01*
X61605551Y-142000000D02*
G75*
G03X61605551Y-142000000I-3605551J0D01*
G01*
X132000000Y-124000000D02*
X135000000Y-127000000D01*
X132000000Y-124000000D02*
X118000000Y-124000000D01*
X65000000Y-127000000D02*
X50500000Y-127000000D01*
X68000000Y-124000000D02*
X65000000Y-127000000D01*
D11*
X125950379Y-53307387D02*
X125596826Y-53660940D01*
X124959167Y-53187431D02*
X125464243Y-52682355D01*
X126392321Y-53875597D01*
X125887245Y-54380674D01*
X123999522Y-54147076D02*
X124504598Y-53642000D01*
X125432676Y-54835242D01*
X122837847Y-55308751D02*
X123765924Y-56501994D01*
X122332771Y-55813828D02*
X123260848Y-57007070D01*
X121726679Y-56419919D01*
X122654757Y-57613162D01*
X121221603Y-56924995D02*
X122149680Y-58118238D01*
X121897142Y-58370776D01*
X121701425Y-58465478D01*
X121512022Y-58452851D01*
X121373126Y-58389717D01*
X121145841Y-58212940D01*
X121013259Y-58042477D01*
X120886990Y-57764685D01*
X120849109Y-57600535D01*
X120861736Y-57385877D01*
X120969065Y-57177534D01*
X121221603Y-56924995D01*
X121089020Y-59178898D02*
X120337719Y-58212940D01*
X120198823Y-58149805D01*
X120104121Y-58143492D01*
X119958912Y-58187686D01*
X119756882Y-58389717D01*
X119700060Y-58547553D01*
X119693747Y-58654882D01*
X119731628Y-58819031D01*
X120482929Y-59784990D01*
X119144477Y-59103137D02*
X118948759Y-59197839D01*
X118696221Y-59450377D01*
X118639400Y-59608213D01*
X118633087Y-59715542D01*
X118670968Y-59879692D01*
X118759356Y-59993334D01*
X118898252Y-60056468D01*
X118992954Y-60062782D01*
X119138163Y-60018588D01*
X119384388Y-59873378D01*
X119529597Y-59829184D01*
X119624299Y-59835497D01*
X119763195Y-59898632D01*
X119851583Y-60012274D01*
X119889464Y-60176424D01*
X119883151Y-60283753D01*
X119826329Y-60441589D01*
X119573791Y-60694127D01*
X119378074Y-60788829D01*
X119119223Y-61148696D02*
X118513131Y-61754787D01*
X117888099Y-60258499D02*
X118816177Y-61451741D01*
X116625409Y-61521189D02*
X117420904Y-61735847D01*
X117231500Y-60915098D02*
X118159578Y-62108341D01*
X117755517Y-62512402D01*
X117610307Y-62556596D01*
X117515606Y-62550282D01*
X117376710Y-62487148D01*
X117244127Y-62316685D01*
X117206246Y-62152535D01*
X117212560Y-62045206D01*
X117269381Y-61887370D01*
X117673442Y-61483309D01*
X116170840Y-61975758D02*
X117098918Y-63169001D01*
X115981436Y-62771253D02*
X115476360Y-63276330D01*
X115817287Y-62329311D02*
X116391811Y-63876108D01*
X115110180Y-63036418D01*
X114251550Y-63895048D02*
X114756626Y-63389972D01*
X115684704Y-64583214D01*
X118888151Y-55652203D02*
X119816228Y-56845446D01*
X119563690Y-57097984D01*
X119367973Y-57192686D01*
X119178569Y-57180059D01*
X119039673Y-57116925D01*
X118812389Y-56940148D01*
X118679807Y-56769685D01*
X118553538Y-56491893D01*
X118515657Y-56327743D01*
X118528284Y-56113086D01*
X118635612Y-55904742D01*
X118888151Y-55652203D01*
X118313626Y-57337896D02*
X117960073Y-57691449D01*
X117322414Y-57217940D02*
X117827490Y-56712864D01*
X118755568Y-57906106D01*
X118250492Y-58411183D01*
X121548640Y-51506790D02*
X120942549Y-52112882D01*
X120317517Y-50616593D02*
X121245594Y-51809836D01*
X120147054Y-51898224D02*
X119793500Y-52251778D01*
X119155841Y-51778269D02*
X119660918Y-51273192D01*
X120588995Y-52466435D01*
X120083919Y-52971511D01*
X118701273Y-52232837D02*
X119629350Y-53426080D01*
X118612884Y-52927317D01*
X118922244Y-54133187D01*
X117994166Y-52939944D01*
X117489090Y-53445020D02*
X118417167Y-54638263D01*
X118013106Y-55042324D01*
X117867897Y-55086518D01*
X117773195Y-55080205D01*
X117634299Y-55017070D01*
X117501717Y-54846607D01*
X117463836Y-54682457D01*
X117470149Y-54575129D01*
X117526970Y-54417292D01*
X117931031Y-54013231D01*
X116914565Y-55130713D02*
X116561012Y-55484266D01*
X115923353Y-55010757D02*
X116428429Y-54505681D01*
X117356507Y-55698923D01*
X116851431Y-56204000D01*
X114862693Y-56071417D02*
X115658188Y-56286074D01*
X115468785Y-55465326D02*
X116396862Y-56658568D01*
X115992801Y-57062629D01*
X115847592Y-57106823D01*
X115752890Y-57100510D01*
X115613994Y-57037375D01*
X115481411Y-56866912D01*
X115443531Y-56702762D01*
X115449844Y-56595434D01*
X115506665Y-56437597D01*
X115910726Y-56033536D01*
X113903048Y-57031062D02*
X114408124Y-56525986D01*
X115336202Y-57719228D01*
X114035631Y-58009647D02*
X113682077Y-58363201D01*
X113044418Y-57889692D02*
X113549495Y-57384615D01*
X114477572Y-58577858D01*
X113972496Y-59082934D01*
X112829761Y-59114502D02*
X112387819Y-58546291D01*
X113669450Y-59385980D02*
X112829761Y-59114502D01*
X112962344Y-60093087D01*
D10*
X69000000Y-67000000D02*
X53000000Y-67000000D01*
X69000000Y-67000000D02*
X69000000Y-65000000D01*
X71000000Y-65000000D02*
X69000000Y-65000000D01*
X71000000Y-65000000D02*
X71000000Y-67000000D01*
X69000000Y-48000000D02*
X60000000Y-48000000D01*
X69000000Y-50000000D02*
X69000000Y-48000000D01*
X71000000Y-50000000D02*
X69000000Y-50000000D01*
X71000000Y-48000000D02*
X71000000Y-50000000D01*
X159000000Y-64000000D02*
X140000000Y-48000000D01*
X131000000Y-48000000D02*
X140000000Y-48000000D01*
X131000000Y-50000000D02*
X131000000Y-48000000D01*
X129000000Y-50000000D02*
X131000000Y-50000000D01*
X129000000Y-48000000D02*
X129000000Y-50000000D01*
X131000000Y-65000000D02*
X131000000Y-67000000D01*
X129000000Y-65000000D02*
X131000000Y-65000000D01*
X129000000Y-67000000D02*
X129000000Y-65000000D01*
X147000000Y-67000000D02*
X165000000Y-79000000D01*
X53000000Y-67000000D02*
X35000000Y-79000000D01*
X90000000Y-67000000D02*
X71000000Y-67000000D01*
D11*
X80298487Y-60253132D02*
X80203785Y-60057415D01*
X80210099Y-59962713D01*
X80273233Y-59823817D01*
X80443696Y-59691234D01*
X80607846Y-59653354D01*
X80715175Y-59659667D01*
X80873011Y-59716488D01*
X81277072Y-60120549D01*
X80083830Y-61048627D01*
X79730276Y-60695074D01*
X79686082Y-60549864D01*
X79692395Y-60455162D01*
X79755530Y-60316266D01*
X79869172Y-60227878D01*
X80033322Y-60189997D01*
X80140651Y-60196311D01*
X80298487Y-60253132D01*
X80652040Y-60606685D01*
X79521932Y-59779623D02*
X80064889Y-58908366D01*
X79016856Y-59274547D02*
X80064889Y-58908366D01*
X80450010Y-58788411D01*
X80557339Y-58794724D01*
X80715175Y-58851545D01*
X79294648Y-58340155D02*
X79300961Y-58245454D01*
X79408290Y-58251767D01*
X79401977Y-58346469D01*
X79294648Y-58340155D01*
X79408290Y-58251767D01*
X78669616Y-58826291D02*
X78675929Y-58731590D01*
X78783258Y-58737903D01*
X78776945Y-58832605D01*
X78669616Y-58826291D01*
X78783258Y-58737903D01*
X86217981Y-62566381D02*
X85864427Y-62212828D01*
X86337936Y-61575169D02*
X86843012Y-62080246D01*
X85649770Y-63008323D01*
X85144694Y-62503247D01*
X85378291Y-60615524D02*
X85883368Y-61120601D01*
X84690125Y-62048678D01*
X85024738Y-60261971D02*
X83831495Y-61190049D01*
X84229243Y-60072567D02*
X83724166Y-59567491D01*
X84671185Y-59908418D02*
X83124388Y-60482942D01*
X83964078Y-59201311D01*
X83604211Y-58942459D02*
X83509509Y-58746742D01*
X83256971Y-58494204D01*
X83099135Y-58437383D01*
X82991806Y-58431069D01*
X82827656Y-58468950D01*
X82714014Y-58557339D01*
X82650879Y-58696235D01*
X82644566Y-58790936D01*
X82688760Y-58936146D01*
X82833970Y-59182370D01*
X82878164Y-59327580D01*
X82871850Y-59422282D01*
X82808716Y-59561178D01*
X82695074Y-59649566D01*
X82530924Y-59687447D01*
X82423595Y-59681133D01*
X82265759Y-59624312D01*
X82013221Y-59371774D01*
X81918519Y-59176057D01*
X80700022Y-58058576D02*
X79992916Y-57351469D01*
X81893265Y-57130498D01*
X81186158Y-56423391D01*
X80491678Y-56335003D02*
X79986602Y-55829927D01*
X80933620Y-56170853D02*
X79386824Y-56745377D01*
X80226513Y-55463746D01*
X79266868Y-54504101D02*
X79052211Y-55299597D01*
X79872960Y-55110193D02*
X78679717Y-56038271D01*
X78275656Y-55634210D01*
X78231462Y-55489000D01*
X78237775Y-55394298D01*
X78300910Y-55255402D01*
X78471373Y-55122820D01*
X78635523Y-55084939D01*
X78742852Y-55091253D01*
X78900688Y-55148074D01*
X79304749Y-55552135D01*
X78521881Y-54365205D02*
X78016805Y-53860129D01*
X78963823Y-54201056D02*
X77417027Y-54775580D01*
X78256716Y-53493949D01*
X76861443Y-54219996D02*
X76255351Y-53613905D01*
X77751640Y-52988873D02*
X76558397Y-53916950D01*
X76470009Y-52818409D02*
X76116455Y-52464856D01*
X76589964Y-51827197D02*
X77095040Y-52332274D01*
X75901798Y-53260351D01*
X75396721Y-52755275D01*
D10*
X110000000Y-116000000D02*
X110000000Y-67000000D01*
X90000000Y-67000000D02*
X90000000Y-116000000D01*
X110000000Y-67000000D02*
X129000000Y-67000000D01*
X159000000Y-64000000D02*
X165000000Y-79000000D01*
X131000000Y-67000000D02*
X147000000Y-67000000D01*
X133000000Y-167000000D02*
X67000000Y-167000000D01*
X143000000Y-157000000D02*
X133000000Y-167000000D01*
X149500000Y-157000000D02*
X143000000Y-157000000D01*
X57000000Y-157000000D02*
X67000000Y-167000000D01*
X50500000Y-157000000D02*
X57000000Y-157000000D01*
X50500000Y-127000000D02*
X50500000Y-157000000D01*
X149500000Y-127000000D02*
X149500000Y-157000000D01*
X149500000Y-127000000D02*
X135000000Y-127000000D01*
X82000000Y-124000000D02*
X68000000Y-124000000D01*
X90000000Y-116000000D02*
X82000000Y-124000000D01*
X110000000Y-116000000D02*
X118000000Y-124000000D01*
X60000000Y-48000000D02*
X41000000Y-64000000D01*
X41000000Y-64000000D02*
X35000000Y-79000000D01*
X71000000Y-48000000D02*
X129000000Y-48000000D01*
D12*
G36*
X131290104Y-161339585D02*
G01*
X131458626Y-161409389D01*
X131610291Y-161510728D01*
X131739272Y-161639709D01*
X131840611Y-161791374D01*
X131910415Y-161959896D01*
X131941349Y-162115415D01*
X131948462Y-162138864D01*
X131960013Y-162160475D01*
X131975559Y-162179417D01*
X131994501Y-162194962D01*
X132016111Y-162206513D01*
X132039560Y-162213626D01*
X132063946Y-162216028D01*
X132088332Y-162213626D01*
X132161861Y-162199000D01*
X132418139Y-162199000D01*
X132669487Y-162248996D01*
X132906253Y-162347068D01*
X132906255Y-162347069D01*
X133119339Y-162489447D01*
X133300553Y-162670661D01*
X133420792Y-162850611D01*
X133442932Y-162883747D01*
X133541004Y-163120513D01*
X133591000Y-163371861D01*
X133591000Y-163628139D01*
X133541004Y-163879487D01*
X133525774Y-163916255D01*
X133442931Y-164116255D01*
X133300553Y-164329339D01*
X133119339Y-164510553D01*
X132906255Y-164652931D01*
X132906254Y-164652932D01*
X132906253Y-164652932D01*
X132669487Y-164751004D01*
X132418139Y-164801000D01*
X132161861Y-164801000D01*
X131910513Y-164751004D01*
X131673747Y-164652932D01*
X131673746Y-164652932D01*
X131673745Y-164652931D01*
X131460661Y-164510553D01*
X131279447Y-164329339D01*
X131137069Y-164116255D01*
X131054226Y-163916255D01*
X131038996Y-163879487D01*
X130989000Y-163628139D01*
X130989000Y-163371861D01*
X131003626Y-163298332D01*
X131006028Y-163273946D01*
X131003626Y-163249560D01*
X130996513Y-163226111D01*
X130984962Y-163204500D01*
X130969417Y-163185558D01*
X130950475Y-163170013D01*
X130928864Y-163158462D01*
X130905416Y-163151349D01*
X130749896Y-163120415D01*
X130581374Y-163050611D01*
X130429709Y-162949272D01*
X130300728Y-162820291D01*
X130199389Y-162668626D01*
X130129585Y-162500104D01*
X130094000Y-162321203D01*
X130094000Y-162138797D01*
X130129585Y-161959896D01*
X130199389Y-161791374D01*
X130300728Y-161639709D01*
X130429709Y-161510728D01*
X130581374Y-161409389D01*
X130749896Y-161339585D01*
X130928797Y-161304000D01*
X131111203Y-161304000D01*
X131290104Y-161339585D01*
X131290104Y-161339585D01*
G37*
G36*
X128750104Y-161339585D02*
G01*
X128918626Y-161409389D01*
X129070291Y-161510728D01*
X129199272Y-161639709D01*
X129300611Y-161791374D01*
X129370415Y-161959896D01*
X129406000Y-162138797D01*
X129406000Y-162321203D01*
X129370415Y-162500104D01*
X129300611Y-162668626D01*
X129199272Y-162820291D01*
X129070291Y-162949272D01*
X128918626Y-163050611D01*
X128750104Y-163120415D01*
X128594584Y-163151349D01*
X128571136Y-163158462D01*
X128549525Y-163170013D01*
X128530583Y-163185559D01*
X128515038Y-163204501D01*
X128503487Y-163226111D01*
X128496374Y-163249560D01*
X128493972Y-163273946D01*
X128496374Y-163298332D01*
X128511000Y-163371861D01*
X128511000Y-163628139D01*
X128461004Y-163879487D01*
X128445774Y-163916255D01*
X128362931Y-164116255D01*
X128220553Y-164329339D01*
X128039339Y-164510553D01*
X127826255Y-164652931D01*
X127826254Y-164652932D01*
X127826253Y-164652932D01*
X127589487Y-164751004D01*
X127338139Y-164801000D01*
X127081861Y-164801000D01*
X126830513Y-164751004D01*
X126593747Y-164652932D01*
X126593746Y-164652932D01*
X126593745Y-164652931D01*
X126380661Y-164510553D01*
X126199447Y-164329339D01*
X126057069Y-164116255D01*
X125974226Y-163916255D01*
X125958996Y-163879487D01*
X125909000Y-163628139D01*
X125909000Y-163371861D01*
X125958996Y-163120513D01*
X126057068Y-162883747D01*
X126079209Y-162850611D01*
X126199447Y-162670661D01*
X126380661Y-162489447D01*
X126593745Y-162347069D01*
X126593747Y-162347068D01*
X126830513Y-162248996D01*
X127081861Y-162199000D01*
X127338139Y-162199000D01*
X127411668Y-162213626D01*
X127436054Y-162216028D01*
X127460440Y-162213626D01*
X127483889Y-162206513D01*
X127505500Y-162194962D01*
X127524442Y-162179417D01*
X127539987Y-162160475D01*
X127551538Y-162138864D01*
X127558651Y-162115415D01*
X127589585Y-161959896D01*
X127659389Y-161791374D01*
X127760728Y-161639709D01*
X127889709Y-161510728D01*
X128041374Y-161409389D01*
X128209896Y-161339585D01*
X128388797Y-161304000D01*
X128571203Y-161304000D01*
X128750104Y-161339585D01*
X128750104Y-161339585D01*
G37*
G36*
X70680104Y-161139585D02*
G01*
X70848626Y-161209389D01*
X71000291Y-161310728D01*
X71129272Y-161439709D01*
X71230611Y-161591374D01*
X71300415Y-161759896D01*
X71331349Y-161915415D01*
X71338462Y-161938864D01*
X71350013Y-161960475D01*
X71365559Y-161979417D01*
X71384501Y-161994962D01*
X71406111Y-162006513D01*
X71429560Y-162013626D01*
X71453946Y-162016028D01*
X71478332Y-162013626D01*
X71551861Y-161999000D01*
X71808139Y-161999000D01*
X72059487Y-162048996D01*
X72296253Y-162147068D01*
X72296255Y-162147069D01*
X72509339Y-162289447D01*
X72690553Y-162470661D01*
X72824189Y-162670661D01*
X72832932Y-162683747D01*
X72931004Y-162920513D01*
X72981000Y-163171861D01*
X72981000Y-163428139D01*
X72931004Y-163679487D01*
X72832932Y-163916253D01*
X72832931Y-163916255D01*
X72690553Y-164129339D01*
X72509339Y-164310553D01*
X72296255Y-164452931D01*
X72296254Y-164452932D01*
X72296253Y-164452932D01*
X72059487Y-164551004D01*
X71808139Y-164601000D01*
X71551861Y-164601000D01*
X71300513Y-164551004D01*
X71063747Y-164452932D01*
X71063746Y-164452932D01*
X71063745Y-164452931D01*
X70850661Y-164310553D01*
X70669447Y-164129339D01*
X70527069Y-163916255D01*
X70527068Y-163916253D01*
X70428996Y-163679487D01*
X70379000Y-163428139D01*
X70379000Y-163171861D01*
X70393626Y-163098332D01*
X70396028Y-163073946D01*
X70393626Y-163049560D01*
X70386513Y-163026111D01*
X70374962Y-163004500D01*
X70359417Y-162985558D01*
X70340475Y-162970013D01*
X70318864Y-162958462D01*
X70295416Y-162951349D01*
X70139896Y-162920415D01*
X69971374Y-162850611D01*
X69819709Y-162749272D01*
X69690728Y-162620291D01*
X69589389Y-162468626D01*
X69519585Y-162300104D01*
X69484000Y-162121203D01*
X69484000Y-161938797D01*
X69519585Y-161759896D01*
X69589389Y-161591374D01*
X69690728Y-161439709D01*
X69819709Y-161310728D01*
X69971374Y-161209389D01*
X70139896Y-161139585D01*
X70318797Y-161104000D01*
X70501203Y-161104000D01*
X70680104Y-161139585D01*
X70680104Y-161139585D01*
G37*
G36*
X118339487Y-162048996D02*
G01*
X118576253Y-162147068D01*
X118576255Y-162147069D01*
X118789339Y-162289447D01*
X118970553Y-162470661D01*
X119104189Y-162670661D01*
X119112932Y-162683747D01*
X119211004Y-162920513D01*
X119261000Y-163171861D01*
X119261000Y-163428139D01*
X119211004Y-163679487D01*
X119112932Y-163916253D01*
X119112931Y-163916255D01*
X118970553Y-164129339D01*
X118789339Y-164310553D01*
X118576255Y-164452931D01*
X118576254Y-164452932D01*
X118576253Y-164452932D01*
X118339487Y-164551004D01*
X118088139Y-164601000D01*
X117831861Y-164601000D01*
X117580513Y-164551004D01*
X117343747Y-164452932D01*
X117343746Y-164452932D01*
X117343745Y-164452931D01*
X117130661Y-164310553D01*
X116949447Y-164129339D01*
X116807069Y-163916255D01*
X116807068Y-163916253D01*
X116708996Y-163679487D01*
X116659000Y-163428139D01*
X116659000Y-163171861D01*
X116708996Y-162920513D01*
X116807068Y-162683747D01*
X116815812Y-162670661D01*
X116949447Y-162470661D01*
X117130661Y-162289447D01*
X117343745Y-162147069D01*
X117343747Y-162147068D01*
X117580513Y-162048996D01*
X117831861Y-161999000D01*
X118088139Y-161999000D01*
X118339487Y-162048996D01*
X118339487Y-162048996D01*
G37*
G36*
X123419487Y-162048996D02*
G01*
X123656253Y-162147068D01*
X123656255Y-162147069D01*
X123869339Y-162289447D01*
X124050553Y-162470661D01*
X124184189Y-162670661D01*
X124192932Y-162683747D01*
X124291004Y-162920513D01*
X124341000Y-163171861D01*
X124341000Y-163428139D01*
X124291004Y-163679487D01*
X124192932Y-163916253D01*
X124192931Y-163916255D01*
X124050553Y-164129339D01*
X123869339Y-164310553D01*
X123656255Y-164452931D01*
X123656254Y-164452932D01*
X123656253Y-164452932D01*
X123419487Y-164551004D01*
X123168139Y-164601000D01*
X122911861Y-164601000D01*
X122660513Y-164551004D01*
X122423747Y-164452932D01*
X122423746Y-164452932D01*
X122423745Y-164452931D01*
X122210661Y-164310553D01*
X122029447Y-164129339D01*
X121887069Y-163916255D01*
X121887068Y-163916253D01*
X121788996Y-163679487D01*
X121739000Y-163428139D01*
X121739000Y-163171861D01*
X121788996Y-162920513D01*
X121887068Y-162683747D01*
X121895812Y-162670661D01*
X122029447Y-162470661D01*
X122210661Y-162289447D01*
X122423745Y-162147069D01*
X122423747Y-162147068D01*
X122660513Y-162048996D01*
X122911861Y-161999000D01*
X123168139Y-161999000D01*
X123419487Y-162048996D01*
X123419487Y-162048996D01*
G37*
G36*
X82219487Y-162048996D02*
G01*
X82456253Y-162147068D01*
X82456255Y-162147069D01*
X82669339Y-162289447D01*
X82850553Y-162470661D01*
X82984189Y-162670661D01*
X82992932Y-162683747D01*
X83091004Y-162920513D01*
X83141000Y-163171861D01*
X83141000Y-163428139D01*
X83091004Y-163679487D01*
X82992932Y-163916253D01*
X82992931Y-163916255D01*
X82850553Y-164129339D01*
X82669339Y-164310553D01*
X82456255Y-164452931D01*
X82456254Y-164452932D01*
X82456253Y-164452932D01*
X82219487Y-164551004D01*
X81968139Y-164601000D01*
X81711861Y-164601000D01*
X81460513Y-164551004D01*
X81223747Y-164452932D01*
X81223746Y-164452932D01*
X81223745Y-164452931D01*
X81010661Y-164310553D01*
X80829447Y-164129339D01*
X80687069Y-163916255D01*
X80687068Y-163916253D01*
X80588996Y-163679487D01*
X80539000Y-163428139D01*
X80539000Y-163171861D01*
X80588996Y-162920513D01*
X80687068Y-162683747D01*
X80695812Y-162670661D01*
X80829447Y-162470661D01*
X81010661Y-162289447D01*
X81223745Y-162147069D01*
X81223747Y-162147068D01*
X81460513Y-162048996D01*
X81711861Y-161999000D01*
X81968139Y-161999000D01*
X82219487Y-162048996D01*
X82219487Y-162048996D01*
G37*
G36*
X77139487Y-162048996D02*
G01*
X77376253Y-162147068D01*
X77376255Y-162147069D01*
X77589339Y-162289447D01*
X77770553Y-162470661D01*
X77904189Y-162670661D01*
X77912932Y-162683747D01*
X78011004Y-162920513D01*
X78061000Y-163171861D01*
X78061000Y-163428139D01*
X78011004Y-163679487D01*
X77912932Y-163916253D01*
X77912931Y-163916255D01*
X77770553Y-164129339D01*
X77589339Y-164310553D01*
X77376255Y-164452931D01*
X77376254Y-164452932D01*
X77376253Y-164452932D01*
X77139487Y-164551004D01*
X76888139Y-164601000D01*
X76631861Y-164601000D01*
X76380513Y-164551004D01*
X76143747Y-164452932D01*
X76143746Y-164452932D01*
X76143745Y-164452931D01*
X75930661Y-164310553D01*
X75749447Y-164129339D01*
X75607069Y-163916255D01*
X75607068Y-163916253D01*
X75508996Y-163679487D01*
X75459000Y-163428139D01*
X75459000Y-163171861D01*
X75508996Y-162920513D01*
X75607068Y-162683747D01*
X75615812Y-162670661D01*
X75749447Y-162470661D01*
X75930661Y-162289447D01*
X76143745Y-162147069D01*
X76143747Y-162147068D01*
X76380513Y-162048996D01*
X76631861Y-161999000D01*
X76888139Y-161999000D01*
X77139487Y-162048996D01*
X77139487Y-162048996D01*
G37*
G36*
X68140104Y-161139585D02*
G01*
X68308626Y-161209389D01*
X68460291Y-161310728D01*
X68589272Y-161439709D01*
X68690611Y-161591374D01*
X68760415Y-161759896D01*
X68796000Y-161938797D01*
X68796000Y-162121203D01*
X68760415Y-162300104D01*
X68690611Y-162468626D01*
X68589272Y-162620291D01*
X68460291Y-162749272D01*
X68308626Y-162850611D01*
X68140104Y-162920415D01*
X67984584Y-162951349D01*
X67961136Y-162958462D01*
X67939525Y-162970013D01*
X67920583Y-162985559D01*
X67905038Y-163004501D01*
X67893487Y-163026111D01*
X67886374Y-163049560D01*
X67883972Y-163073946D01*
X67886374Y-163098332D01*
X67901000Y-163171861D01*
X67901000Y-163428139D01*
X67851004Y-163679487D01*
X67752932Y-163916253D01*
X67752931Y-163916255D01*
X67610553Y-164129339D01*
X67429339Y-164310553D01*
X67216255Y-164452931D01*
X67216254Y-164452932D01*
X67216253Y-164452932D01*
X66979487Y-164551004D01*
X66728139Y-164601000D01*
X66471861Y-164601000D01*
X66220513Y-164551004D01*
X65983747Y-164452932D01*
X65983746Y-164452932D01*
X65983745Y-164452931D01*
X65770661Y-164310553D01*
X65589447Y-164129339D01*
X65447069Y-163916255D01*
X65447068Y-163916253D01*
X65348996Y-163679487D01*
X65299000Y-163428139D01*
X65299000Y-163171861D01*
X65348996Y-162920513D01*
X65447068Y-162683747D01*
X65455812Y-162670661D01*
X65589447Y-162470661D01*
X65770661Y-162289447D01*
X65983745Y-162147069D01*
X65983747Y-162147068D01*
X66220513Y-162048996D01*
X66471861Y-161999000D01*
X66728139Y-161999000D01*
X66801668Y-162013626D01*
X66826054Y-162016028D01*
X66850440Y-162013626D01*
X66873889Y-162006513D01*
X66895500Y-161994962D01*
X66914442Y-161979417D01*
X66929987Y-161960475D01*
X66941538Y-161938864D01*
X66948651Y-161915415D01*
X66979585Y-161759896D01*
X67049389Y-161591374D01*
X67150728Y-161439709D01*
X67279709Y-161310728D01*
X67431374Y-161209389D01*
X67599896Y-161139585D01*
X67778797Y-161104000D01*
X67961203Y-161104000D01*
X68140104Y-161139585D01*
X68140104Y-161139585D01*
G37*
G36*
X92747567Y-158920921D02*
G01*
X92827196Y-158928764D01*
X92980447Y-158975252D01*
X92980450Y-158975253D01*
X93121683Y-159050744D01*
X93245479Y-159152341D01*
X93347076Y-159276137D01*
X93422567Y-159417370D01*
X93422568Y-159417373D01*
X93469056Y-159570624D01*
X93484753Y-159730000D01*
X93469056Y-159889376D01*
X93422568Y-160042627D01*
X93422567Y-160042630D01*
X93347076Y-160183863D01*
X93245479Y-160307659D01*
X93121683Y-160409256D01*
X92980450Y-160484747D01*
X92980447Y-160484748D01*
X92827196Y-160531236D01*
X92747567Y-160539079D01*
X92707754Y-160543000D01*
X91952246Y-160543000D01*
X91912433Y-160539079D01*
X91832804Y-160531236D01*
X91679553Y-160484748D01*
X91679550Y-160484747D01*
X91538317Y-160409256D01*
X91414521Y-160307659D01*
X91312924Y-160183863D01*
X91237433Y-160042630D01*
X91237432Y-160042627D01*
X91190944Y-159889376D01*
X91175247Y-159730000D01*
X91190944Y-159570624D01*
X91237432Y-159417373D01*
X91237433Y-159417370D01*
X91312924Y-159276137D01*
X91414521Y-159152341D01*
X91538317Y-159050744D01*
X91679550Y-158975253D01*
X91679553Y-158975252D01*
X91832804Y-158928764D01*
X91912433Y-158920921D01*
X91952246Y-158917000D01*
X92707754Y-158917000D01*
X92747567Y-158920921D01*
X92747567Y-158920921D01*
G37*
G36*
X107987567Y-158920921D02*
G01*
X108067196Y-158928764D01*
X108220447Y-158975252D01*
X108220450Y-158975253D01*
X108361683Y-159050744D01*
X108485479Y-159152341D01*
X108587076Y-159276137D01*
X108662567Y-159417370D01*
X108662568Y-159417373D01*
X108709056Y-159570624D01*
X108724753Y-159730000D01*
X108709056Y-159889376D01*
X108662568Y-160042627D01*
X108662567Y-160042630D01*
X108587076Y-160183863D01*
X108485479Y-160307659D01*
X108361683Y-160409256D01*
X108220450Y-160484747D01*
X108220447Y-160484748D01*
X108067196Y-160531236D01*
X107987567Y-160539079D01*
X107947754Y-160543000D01*
X107192246Y-160543000D01*
X107152433Y-160539079D01*
X107072804Y-160531236D01*
X106919553Y-160484748D01*
X106919550Y-160484747D01*
X106778317Y-160409256D01*
X106654521Y-160307659D01*
X106552924Y-160183863D01*
X106477433Y-160042630D01*
X106477432Y-160042627D01*
X106430944Y-159889376D01*
X106415247Y-159730000D01*
X106430944Y-159570624D01*
X106477432Y-159417373D01*
X106477433Y-159417370D01*
X106552924Y-159276137D01*
X106654521Y-159152341D01*
X106778317Y-159050744D01*
X106919550Y-158975253D01*
X106919553Y-158975252D01*
X107072804Y-158928764D01*
X107152433Y-158920921D01*
X107192246Y-158917000D01*
X107947754Y-158917000D01*
X107987567Y-158920921D01*
X107987567Y-158920921D01*
G37*
G36*
X90395100Y-159727700D02*
G01*
X88692900Y-159727700D01*
X88692900Y-157822300D01*
X90395100Y-157822300D01*
X90395100Y-159727700D01*
X90395100Y-159727700D01*
G37*
G36*
X87601100Y-159727700D02*
G01*
X85898900Y-159727700D01*
X85898900Y-157822300D01*
X87601100Y-157822300D01*
X87601100Y-159727700D01*
X87601100Y-159727700D01*
G37*
G36*
X62084100Y-159242700D02*
G01*
X60381900Y-159242700D01*
X60381900Y-157337300D01*
X62084100Y-157337300D01*
X62084100Y-159242700D01*
X62084100Y-159242700D01*
G37*
G36*
X64878100Y-159242700D02*
G01*
X63175900Y-159242700D01*
X63175900Y-157337300D01*
X64878100Y-157337300D01*
X64878100Y-159242700D01*
X64878100Y-159242700D01*
G37*
G36*
X79371600Y-158051000D02*
G01*
X78558400Y-158051000D01*
X78558400Y-155949000D01*
X79371600Y-155949000D01*
X79371600Y-158051000D01*
X79371600Y-158051000D01*
G37*
G36*
X78101600Y-158051000D02*
G01*
X77288400Y-158051000D01*
X77288400Y-155949000D01*
X78101600Y-155949000D01*
X78101600Y-158051000D01*
X78101600Y-158051000D01*
G37*
G36*
X80641600Y-158051000D02*
G01*
X79828400Y-158051000D01*
X79828400Y-155949000D01*
X80641600Y-155949000D01*
X80641600Y-158051000D01*
X80641600Y-158051000D01*
G37*
G36*
X81911600Y-158051000D02*
G01*
X81098400Y-158051000D01*
X81098400Y-155949000D01*
X81911600Y-155949000D01*
X81911600Y-158051000D01*
X81911600Y-158051000D01*
G37*
G36*
X70201600Y-158051000D02*
G01*
X69388400Y-158051000D01*
X69388400Y-155949000D01*
X70201600Y-155949000D01*
X70201600Y-158051000D01*
X70201600Y-158051000D01*
G37*
G36*
X71471600Y-158051000D02*
G01*
X70658400Y-158051000D01*
X70658400Y-155949000D01*
X71471600Y-155949000D01*
X71471600Y-158051000D01*
X71471600Y-158051000D01*
G37*
G36*
X72741600Y-158051000D02*
G01*
X71928400Y-158051000D01*
X71928400Y-155949000D01*
X72741600Y-155949000D01*
X72741600Y-158051000D01*
X72741600Y-158051000D01*
G37*
G36*
X74011600Y-158051000D02*
G01*
X73198400Y-158051000D01*
X73198400Y-155949000D01*
X74011600Y-155949000D01*
X74011600Y-158051000D01*
X74011600Y-158051000D01*
G37*
G36*
X92747567Y-156380921D02*
G01*
X92827196Y-156388764D01*
X92980447Y-156435252D01*
X92980450Y-156435253D01*
X93121683Y-156510744D01*
X93245479Y-156612341D01*
X93347076Y-156736137D01*
X93422567Y-156877370D01*
X93422568Y-156877373D01*
X93469056Y-157030624D01*
X93484753Y-157190000D01*
X93469056Y-157349376D01*
X93422568Y-157502627D01*
X93422567Y-157502630D01*
X93347076Y-157643863D01*
X93245479Y-157767659D01*
X93121683Y-157869256D01*
X92980450Y-157944747D01*
X92980447Y-157944748D01*
X92827196Y-157991236D01*
X92747567Y-157999079D01*
X92707754Y-158003000D01*
X91952246Y-158003000D01*
X91912433Y-157999079D01*
X91832804Y-157991236D01*
X91679553Y-157944748D01*
X91679550Y-157944747D01*
X91538317Y-157869256D01*
X91414521Y-157767659D01*
X91312924Y-157643863D01*
X91237433Y-157502630D01*
X91237432Y-157502627D01*
X91190944Y-157349376D01*
X91175247Y-157190000D01*
X91190944Y-157030624D01*
X91237432Y-156877373D01*
X91237433Y-156877370D01*
X91312924Y-156736137D01*
X91414521Y-156612341D01*
X91538317Y-156510744D01*
X91679550Y-156435253D01*
X91679553Y-156435252D01*
X91832804Y-156388764D01*
X91912433Y-156380921D01*
X91952246Y-156377000D01*
X92707754Y-156377000D01*
X92747567Y-156380921D01*
X92747567Y-156380921D01*
G37*
G36*
X107987567Y-156380921D02*
G01*
X108067196Y-156388764D01*
X108220447Y-156435252D01*
X108220450Y-156435253D01*
X108361683Y-156510744D01*
X108485479Y-156612341D01*
X108587076Y-156736137D01*
X108662567Y-156877370D01*
X108662568Y-156877373D01*
X108709056Y-157030624D01*
X108724753Y-157190000D01*
X108709056Y-157349376D01*
X108662568Y-157502627D01*
X108662567Y-157502630D01*
X108587076Y-157643863D01*
X108485479Y-157767659D01*
X108361683Y-157869256D01*
X108220450Y-157944747D01*
X108220447Y-157944748D01*
X108067196Y-157991236D01*
X107987567Y-157999079D01*
X107947754Y-158003000D01*
X107192246Y-158003000D01*
X107152433Y-157999079D01*
X107072804Y-157991236D01*
X106919553Y-157944748D01*
X106919550Y-157944747D01*
X106778317Y-157869256D01*
X106654521Y-157767659D01*
X106552924Y-157643863D01*
X106477433Y-157502630D01*
X106477432Y-157502627D01*
X106430944Y-157349376D01*
X106415247Y-157190000D01*
X106430944Y-157030624D01*
X106477432Y-156877373D01*
X106477433Y-156877370D01*
X106552924Y-156736137D01*
X106654521Y-156612341D01*
X106778317Y-156510744D01*
X106919550Y-156435253D01*
X106919553Y-156435252D01*
X107072804Y-156388764D01*
X107152433Y-156380921D01*
X107192246Y-156377000D01*
X107947754Y-156377000D01*
X107987567Y-156380921D01*
X107987567Y-156380921D01*
G37*
G36*
X117621600Y-157851000D02*
G01*
X116808400Y-157851000D01*
X116808400Y-155749000D01*
X117621600Y-155749000D01*
X117621600Y-157851000D01*
X117621600Y-157851000D01*
G37*
G36*
X116351600Y-157851000D02*
G01*
X115538400Y-157851000D01*
X115538400Y-155749000D01*
X116351600Y-155749000D01*
X116351600Y-157851000D01*
X116351600Y-157851000D01*
G37*
G36*
X118891600Y-157851000D02*
G01*
X118078400Y-157851000D01*
X118078400Y-155749000D01*
X118891600Y-155749000D01*
X118891600Y-157851000D01*
X118891600Y-157851000D01*
G37*
G36*
X120161600Y-157851000D02*
G01*
X119348400Y-157851000D01*
X119348400Y-155749000D01*
X120161600Y-155749000D01*
X120161600Y-157851000D01*
X120161600Y-157851000D01*
G37*
G36*
X124301600Y-157825999D02*
G01*
X123488400Y-157825999D01*
X123488400Y-155723999D01*
X124301600Y-155723999D01*
X124301600Y-157825999D01*
X124301600Y-157825999D01*
G37*
G36*
X125571600Y-157825999D02*
G01*
X124758400Y-157825999D01*
X124758400Y-155723999D01*
X125571600Y-155723999D01*
X125571600Y-157825999D01*
X125571600Y-157825999D01*
G37*
G36*
X128111600Y-157825999D02*
G01*
X127298400Y-157825999D01*
X127298400Y-155723999D01*
X128111600Y-155723999D01*
X128111600Y-157825999D01*
X128111600Y-157825999D01*
G37*
G36*
X126841600Y-157825999D02*
G01*
X126028400Y-157825999D01*
X126028400Y-155723999D01*
X126841600Y-155723999D01*
X126841600Y-157825999D01*
X126841600Y-157825999D01*
G37*
G36*
X75816378Y-154473832D02*
G01*
X75893809Y-154489234D01*
X76039686Y-154549658D01*
X76170971Y-154637380D01*
X76282620Y-154749029D01*
X76370342Y-154880314D01*
X76430766Y-155026191D01*
X76461570Y-155181052D01*
X76461570Y-155338948D01*
X76430766Y-155493809D01*
X76370342Y-155639686D01*
X76282620Y-155770971D01*
X76170971Y-155882620D01*
X76039686Y-155970342D01*
X75893809Y-156030766D01*
X75738949Y-156061570D01*
X75581051Y-156061570D01*
X75426191Y-156030766D01*
X75280314Y-155970342D01*
X75149029Y-155882620D01*
X75037380Y-155770971D01*
X74949658Y-155639686D01*
X74889234Y-155493809D01*
X74858430Y-155338948D01*
X74858430Y-155181052D01*
X74889234Y-155026191D01*
X74949658Y-154880314D01*
X75037380Y-154749029D01*
X75149029Y-154637380D01*
X75280314Y-154549658D01*
X75426191Y-154489234D01*
X75503622Y-154473832D01*
X75581051Y-154458430D01*
X75738949Y-154458430D01*
X75816378Y-154473832D01*
X75816378Y-154473832D01*
G37*
G36*
X122156378Y-154473832D02*
G01*
X122233809Y-154489234D01*
X122379686Y-154549658D01*
X122510971Y-154637380D01*
X122622620Y-154749029D01*
X122710342Y-154880314D01*
X122770766Y-155026191D01*
X122801570Y-155181052D01*
X122801570Y-155338948D01*
X122770766Y-155493809D01*
X122710342Y-155639686D01*
X122622620Y-155770971D01*
X122510971Y-155882620D01*
X122379686Y-155970342D01*
X122233809Y-156030766D01*
X122078949Y-156061570D01*
X121921051Y-156061570D01*
X121766191Y-156030766D01*
X121620314Y-155970342D01*
X121489029Y-155882620D01*
X121377380Y-155770971D01*
X121289658Y-155639686D01*
X121229234Y-155493809D01*
X121198430Y-155338948D01*
X121198430Y-155181052D01*
X121229234Y-155026191D01*
X121289658Y-154880314D01*
X121377380Y-154749029D01*
X121489029Y-154637380D01*
X121620314Y-154549658D01*
X121766191Y-154489234D01*
X121843622Y-154473832D01*
X121921051Y-154458430D01*
X122078949Y-154458430D01*
X122156378Y-154473832D01*
X122156378Y-154473832D01*
G37*
G36*
X107987567Y-153840921D02*
G01*
X108067196Y-153848764D01*
X108220447Y-153895252D01*
X108220450Y-153895253D01*
X108361683Y-153970744D01*
X108485479Y-154072341D01*
X108587076Y-154196137D01*
X108662567Y-154337370D01*
X108662568Y-154337373D01*
X108709056Y-154490624D01*
X108724753Y-154650000D01*
X108709056Y-154809376D01*
X108662568Y-154962627D01*
X108662567Y-154962630D01*
X108587076Y-155103863D01*
X108485479Y-155227659D01*
X108361683Y-155329256D01*
X108220450Y-155404747D01*
X108220447Y-155404748D01*
X108067196Y-155451236D01*
X107987567Y-155459079D01*
X107947754Y-155463000D01*
X107192246Y-155463000D01*
X107152433Y-155459079D01*
X107072804Y-155451236D01*
X106919553Y-155404748D01*
X106919550Y-155404747D01*
X106778317Y-155329256D01*
X106654521Y-155227659D01*
X106552924Y-155103863D01*
X106477433Y-154962630D01*
X106477432Y-154962627D01*
X106430944Y-154809376D01*
X106415247Y-154650000D01*
X106430944Y-154490624D01*
X106477432Y-154337373D01*
X106477433Y-154337370D01*
X106552924Y-154196137D01*
X106654521Y-154072341D01*
X106778317Y-153970744D01*
X106919550Y-153895253D01*
X106919553Y-153895252D01*
X107072804Y-153848764D01*
X107152433Y-153840921D01*
X107192246Y-153837000D01*
X107947754Y-153837000D01*
X107987567Y-153840921D01*
X107987567Y-153840921D01*
G37*
G36*
X92747567Y-153840921D02*
G01*
X92827196Y-153848764D01*
X92980447Y-153895252D01*
X92980450Y-153895253D01*
X93121683Y-153970744D01*
X93245479Y-154072341D01*
X93347076Y-154196137D01*
X93422567Y-154337370D01*
X93422568Y-154337373D01*
X93469056Y-154490624D01*
X93484753Y-154650000D01*
X93469056Y-154809376D01*
X93422568Y-154962627D01*
X93422567Y-154962630D01*
X93347076Y-155103863D01*
X93245479Y-155227659D01*
X93121683Y-155329256D01*
X92980450Y-155404747D01*
X92980447Y-155404748D01*
X92827196Y-155451236D01*
X92747567Y-155459079D01*
X92707754Y-155463000D01*
X91952246Y-155463000D01*
X91912433Y-155459079D01*
X91832804Y-155451236D01*
X91679553Y-155404748D01*
X91679550Y-155404747D01*
X91538317Y-155329256D01*
X91414521Y-155227659D01*
X91312924Y-155103863D01*
X91237433Y-154962630D01*
X91237432Y-154962627D01*
X91190944Y-154809376D01*
X91175247Y-154650000D01*
X91190944Y-154490624D01*
X91237432Y-154337373D01*
X91237433Y-154337370D01*
X91312924Y-154196137D01*
X91414521Y-154072341D01*
X91538317Y-153970744D01*
X91679550Y-153895253D01*
X91679553Y-153895252D01*
X91832804Y-153848764D01*
X91912433Y-153840921D01*
X91952246Y-153837000D01*
X92707754Y-153837000D01*
X92747567Y-153840921D01*
X92747567Y-153840921D01*
G37*
G36*
X133952700Y-154748100D02*
G01*
X132047300Y-154748100D01*
X132047300Y-153045900D01*
X133952700Y-153045900D01*
X133952700Y-154748100D01*
X133952700Y-154748100D01*
G37*
G36*
X131452700Y-154748100D02*
G01*
X129547300Y-154748100D01*
X129547300Y-153045900D01*
X131452700Y-153045900D01*
X131452700Y-154748100D01*
X131452700Y-154748100D01*
G37*
G36*
X75816378Y-151933832D02*
G01*
X75893809Y-151949234D01*
X76039686Y-152009658D01*
X76170971Y-152097380D01*
X76282620Y-152209029D01*
X76370342Y-152340314D01*
X76430766Y-152486191D01*
X76461570Y-152641052D01*
X76461570Y-152798948D01*
X76430766Y-152953809D01*
X76370342Y-153099686D01*
X76282620Y-153230971D01*
X76170971Y-153342620D01*
X76039686Y-153430342D01*
X75893809Y-153490766D01*
X75816378Y-153506168D01*
X75738949Y-153521570D01*
X75581051Y-153521570D01*
X75503622Y-153506168D01*
X75426191Y-153490766D01*
X75280314Y-153430342D01*
X75149029Y-153342620D01*
X75037380Y-153230971D01*
X74949658Y-153099686D01*
X74889234Y-152953809D01*
X74858430Y-152798948D01*
X74858430Y-152641052D01*
X74889234Y-152486191D01*
X74949658Y-152340314D01*
X75037380Y-152209029D01*
X75149029Y-152097380D01*
X75280314Y-152009658D01*
X75426191Y-151949234D01*
X75503622Y-151933832D01*
X75581051Y-151918430D01*
X75738949Y-151918430D01*
X75816378Y-151933832D01*
X75816378Y-151933832D01*
G37*
G36*
X122156378Y-151933832D02*
G01*
X122233809Y-151949234D01*
X122379686Y-152009658D01*
X122510971Y-152097380D01*
X122622620Y-152209029D01*
X122710342Y-152340314D01*
X122770766Y-152486191D01*
X122801570Y-152641052D01*
X122801570Y-152798948D01*
X122770766Y-152953809D01*
X122710342Y-153099686D01*
X122622620Y-153230971D01*
X122510971Y-153342620D01*
X122379686Y-153430342D01*
X122233809Y-153490766D01*
X122156378Y-153506168D01*
X122078949Y-153521570D01*
X121921051Y-153521570D01*
X121843622Y-153506168D01*
X121766191Y-153490766D01*
X121620314Y-153430342D01*
X121489029Y-153342620D01*
X121377380Y-153230971D01*
X121289658Y-153099686D01*
X121229234Y-152953809D01*
X121198430Y-152798948D01*
X121198430Y-152641052D01*
X121229234Y-152486191D01*
X121289658Y-152340314D01*
X121377380Y-152209029D01*
X121489029Y-152097380D01*
X121620314Y-152009658D01*
X121766191Y-151949234D01*
X121843622Y-151933832D01*
X121921051Y-151918430D01*
X122078949Y-151918430D01*
X122156378Y-151933832D01*
X122156378Y-151933832D01*
G37*
G36*
X92747567Y-151300921D02*
G01*
X92827196Y-151308764D01*
X92980447Y-151355252D01*
X92980450Y-151355253D01*
X93121683Y-151430744D01*
X93245479Y-151532341D01*
X93347076Y-151656137D01*
X93422567Y-151797370D01*
X93422568Y-151797373D01*
X93469056Y-151950624D01*
X93484753Y-152110000D01*
X93469056Y-152269376D01*
X93422568Y-152422627D01*
X93422567Y-152422630D01*
X93347076Y-152563863D01*
X93245479Y-152687659D01*
X93121683Y-152789256D01*
X92980450Y-152864747D01*
X92980447Y-152864748D01*
X92827196Y-152911236D01*
X92747567Y-152919079D01*
X92707754Y-152923000D01*
X91952246Y-152923000D01*
X91912433Y-152919079D01*
X91832804Y-152911236D01*
X91679553Y-152864748D01*
X91679550Y-152864747D01*
X91538317Y-152789256D01*
X91414521Y-152687659D01*
X91312924Y-152563863D01*
X91237433Y-152422630D01*
X91237432Y-152422627D01*
X91190944Y-152269376D01*
X91175247Y-152110000D01*
X91190944Y-151950624D01*
X91237432Y-151797373D01*
X91237433Y-151797370D01*
X91312924Y-151656137D01*
X91414521Y-151532341D01*
X91538317Y-151430744D01*
X91679550Y-151355253D01*
X91679553Y-151355252D01*
X91832804Y-151308764D01*
X91912433Y-151300921D01*
X91952246Y-151297000D01*
X92707754Y-151297000D01*
X92747567Y-151300921D01*
X92747567Y-151300921D01*
G37*
G36*
X107987567Y-151300921D02*
G01*
X108067196Y-151308764D01*
X108220447Y-151355252D01*
X108220450Y-151355253D01*
X108361683Y-151430744D01*
X108485479Y-151532341D01*
X108587076Y-151656137D01*
X108662567Y-151797370D01*
X108662568Y-151797373D01*
X108709056Y-151950624D01*
X108724753Y-152110000D01*
X108709056Y-152269376D01*
X108662568Y-152422627D01*
X108662567Y-152422630D01*
X108587076Y-152563863D01*
X108485479Y-152687659D01*
X108361683Y-152789256D01*
X108220450Y-152864747D01*
X108220447Y-152864748D01*
X108067196Y-152911236D01*
X107987567Y-152919079D01*
X107947754Y-152923000D01*
X107192246Y-152923000D01*
X107152433Y-152919079D01*
X107072804Y-152911236D01*
X106919553Y-152864748D01*
X106919550Y-152864747D01*
X106778317Y-152789256D01*
X106654521Y-152687659D01*
X106552924Y-152563863D01*
X106477433Y-152422630D01*
X106477432Y-152422627D01*
X106430944Y-152269376D01*
X106415247Y-152110000D01*
X106430944Y-151950624D01*
X106477432Y-151797373D01*
X106477433Y-151797370D01*
X106552924Y-151656137D01*
X106654521Y-151532341D01*
X106778317Y-151430744D01*
X106919550Y-151355253D01*
X106919553Y-151355252D01*
X107072804Y-151308764D01*
X107152433Y-151300921D01*
X107192246Y-151297000D01*
X107947754Y-151297000D01*
X107987567Y-151300921D01*
X107987567Y-151300921D01*
G37*
G36*
X74011600Y-152051000D02*
G01*
X73198400Y-152051000D01*
X73198400Y-149949000D01*
X74011600Y-149949000D01*
X74011600Y-152051000D01*
X74011600Y-152051000D01*
G37*
G36*
X81911600Y-152051000D02*
G01*
X81098400Y-152051000D01*
X81098400Y-149949000D01*
X81911600Y-149949000D01*
X81911600Y-152051000D01*
X81911600Y-152051000D01*
G37*
G36*
X78101600Y-152051000D02*
G01*
X77288400Y-152051000D01*
X77288400Y-149949000D01*
X78101600Y-149949000D01*
X78101600Y-152051000D01*
X78101600Y-152051000D01*
G37*
G36*
X72741600Y-152051000D02*
G01*
X71928400Y-152051000D01*
X71928400Y-149949000D01*
X72741600Y-149949000D01*
X72741600Y-152051000D01*
X72741600Y-152051000D01*
G37*
G36*
X71471600Y-152051000D02*
G01*
X70658400Y-152051000D01*
X70658400Y-149949000D01*
X71471600Y-149949000D01*
X71471600Y-152051000D01*
X71471600Y-152051000D01*
G37*
G36*
X70201600Y-152051000D02*
G01*
X69388400Y-152051000D01*
X69388400Y-149949000D01*
X70201600Y-149949000D01*
X70201600Y-152051000D01*
X70201600Y-152051000D01*
G37*
G36*
X80641600Y-152051000D02*
G01*
X79828400Y-152051000D01*
X79828400Y-149949000D01*
X80641600Y-149949000D01*
X80641600Y-152051000D01*
X80641600Y-152051000D01*
G37*
G36*
X79371600Y-152051000D02*
G01*
X78558400Y-152051000D01*
X78558400Y-149949000D01*
X79371600Y-149949000D01*
X79371600Y-152051000D01*
X79371600Y-152051000D01*
G37*
G36*
X133952700Y-151954100D02*
G01*
X132047300Y-151954100D01*
X132047300Y-150251900D01*
X133952700Y-150251900D01*
X133952700Y-151954100D01*
X133952700Y-151954100D01*
G37*
G36*
X131452700Y-151954100D02*
G01*
X129547300Y-151954100D01*
X129547300Y-150251900D01*
X131452700Y-150251900D01*
X131452700Y-151954100D01*
X131452700Y-151954100D01*
G37*
G36*
X118891600Y-151851000D02*
G01*
X118078400Y-151851000D01*
X118078400Y-149749000D01*
X118891600Y-149749000D01*
X118891600Y-151851000D01*
X118891600Y-151851000D01*
G37*
G36*
X116351600Y-151851000D02*
G01*
X115538400Y-151851000D01*
X115538400Y-149749000D01*
X116351600Y-149749000D01*
X116351600Y-151851000D01*
X116351600Y-151851000D01*
G37*
G36*
X117621600Y-151851000D02*
G01*
X116808400Y-151851000D01*
X116808400Y-149749000D01*
X117621600Y-149749000D01*
X117621600Y-151851000D01*
X117621600Y-151851000D01*
G37*
G36*
X120161600Y-151851000D02*
G01*
X119348400Y-151851000D01*
X119348400Y-149749000D01*
X120161600Y-149749000D01*
X120161600Y-151851000D01*
X120161600Y-151851000D01*
G37*
G36*
X124301600Y-151825999D02*
G01*
X123488400Y-151825999D01*
X123488400Y-149723999D01*
X124301600Y-149723999D01*
X124301600Y-151825999D01*
X124301600Y-151825999D01*
G37*
G36*
X126841600Y-151825999D02*
G01*
X126028400Y-151825999D01*
X126028400Y-149723999D01*
X126841600Y-149723999D01*
X126841600Y-151825999D01*
X126841600Y-151825999D01*
G37*
G36*
X125571600Y-151825999D02*
G01*
X124758400Y-151825999D01*
X124758400Y-149723999D01*
X125571600Y-149723999D01*
X125571600Y-151825999D01*
X125571600Y-151825999D01*
G37*
G36*
X128111600Y-151825999D02*
G01*
X127298400Y-151825999D01*
X127298400Y-149723999D01*
X128111600Y-149723999D01*
X128111600Y-151825999D01*
X128111600Y-151825999D01*
G37*
G36*
X107986297Y-148760921D02*
G01*
X108065926Y-148768764D01*
X108219177Y-148815252D01*
X108219180Y-148815253D01*
X108360413Y-148890744D01*
X108484209Y-148992341D01*
X108585806Y-149116137D01*
X108661297Y-149257370D01*
X108661298Y-149257373D01*
X108707786Y-149410624D01*
X108723483Y-149570000D01*
X108707786Y-149729376D01*
X108701833Y-149749000D01*
X108661297Y-149882630D01*
X108585806Y-150023863D01*
X108484209Y-150147659D01*
X108360413Y-150249256D01*
X108219180Y-150324747D01*
X108219177Y-150324748D01*
X108065926Y-150371236D01*
X107986297Y-150379079D01*
X107946484Y-150383000D01*
X107193516Y-150383000D01*
X107153703Y-150379079D01*
X107074074Y-150371236D01*
X106920823Y-150324748D01*
X106920820Y-150324747D01*
X106779587Y-150249256D01*
X106655791Y-150147659D01*
X106554194Y-150023863D01*
X106478703Y-149882630D01*
X106438167Y-149749000D01*
X106432214Y-149729376D01*
X106416517Y-149570000D01*
X106432214Y-149410624D01*
X106478702Y-149257373D01*
X106478703Y-149257370D01*
X106554194Y-149116137D01*
X106655791Y-148992341D01*
X106779587Y-148890744D01*
X106920820Y-148815253D01*
X106920823Y-148815252D01*
X107074074Y-148768764D01*
X107153703Y-148760921D01*
X107193516Y-148757000D01*
X107946484Y-148757000D01*
X107986297Y-148760921D01*
X107986297Y-148760921D01*
G37*
G36*
X92747567Y-148760921D02*
G01*
X92827196Y-148768764D01*
X92980447Y-148815252D01*
X92980450Y-148815253D01*
X93121683Y-148890744D01*
X93245479Y-148992341D01*
X93347076Y-149116137D01*
X93422567Y-149257370D01*
X93422568Y-149257373D01*
X93469056Y-149410624D01*
X93484753Y-149570000D01*
X93469056Y-149729376D01*
X93463103Y-149749000D01*
X93422567Y-149882630D01*
X93347076Y-150023863D01*
X93245479Y-150147659D01*
X93121683Y-150249256D01*
X92980450Y-150324747D01*
X92980447Y-150324748D01*
X92827196Y-150371236D01*
X92747567Y-150379079D01*
X92707754Y-150383000D01*
X91952246Y-150383000D01*
X91912433Y-150379079D01*
X91832804Y-150371236D01*
X91679553Y-150324748D01*
X91679550Y-150324747D01*
X91538317Y-150249256D01*
X91414521Y-150147659D01*
X91312924Y-150023863D01*
X91237433Y-149882630D01*
X91196897Y-149749000D01*
X91190944Y-149729376D01*
X91175247Y-149570000D01*
X91190944Y-149410624D01*
X91237432Y-149257373D01*
X91237433Y-149257370D01*
X91312924Y-149116137D01*
X91414521Y-148992341D01*
X91538317Y-148890744D01*
X91679550Y-148815253D01*
X91679553Y-148815252D01*
X91832804Y-148768764D01*
X91912433Y-148760921D01*
X91952246Y-148757000D01*
X92707754Y-148757000D01*
X92747567Y-148760921D01*
X92747567Y-148760921D01*
G37*
G36*
X92747567Y-146220921D02*
G01*
X92827196Y-146228764D01*
X92980447Y-146275252D01*
X92980450Y-146275253D01*
X93121683Y-146350744D01*
X93245479Y-146452341D01*
X93347076Y-146576137D01*
X93422567Y-146717370D01*
X93422568Y-146717373D01*
X93469056Y-146870624D01*
X93484753Y-147030000D01*
X93469056Y-147189376D01*
X93422568Y-147342627D01*
X93422567Y-147342630D01*
X93347076Y-147483863D01*
X93245479Y-147607659D01*
X93121683Y-147709256D01*
X92980450Y-147784747D01*
X92980447Y-147784748D01*
X92827196Y-147831236D01*
X92747567Y-147839079D01*
X92707754Y-147843000D01*
X91952246Y-147843000D01*
X91912433Y-147839079D01*
X91832804Y-147831236D01*
X91679553Y-147784748D01*
X91679550Y-147784747D01*
X91538317Y-147709256D01*
X91414521Y-147607659D01*
X91312924Y-147483863D01*
X91237433Y-147342630D01*
X91237432Y-147342627D01*
X91190944Y-147189376D01*
X91175247Y-147030000D01*
X91190944Y-146870624D01*
X91237432Y-146717373D01*
X91237433Y-146717370D01*
X91312924Y-146576137D01*
X91414521Y-146452341D01*
X91538317Y-146350744D01*
X91679550Y-146275253D01*
X91679553Y-146275252D01*
X91832804Y-146228764D01*
X91912433Y-146220921D01*
X91952246Y-146217000D01*
X92707754Y-146217000D01*
X92747567Y-146220921D01*
X92747567Y-146220921D01*
G37*
G36*
X107986297Y-146220921D02*
G01*
X108065926Y-146228764D01*
X108219177Y-146275252D01*
X108219180Y-146275253D01*
X108360413Y-146350744D01*
X108484209Y-146452341D01*
X108585806Y-146576137D01*
X108661297Y-146717370D01*
X108661298Y-146717373D01*
X108707786Y-146870624D01*
X108723483Y-147030000D01*
X108707786Y-147189376D01*
X108661298Y-147342627D01*
X108661297Y-147342630D01*
X108585806Y-147483863D01*
X108484209Y-147607659D01*
X108360413Y-147709256D01*
X108219180Y-147784747D01*
X108219177Y-147784748D01*
X108065926Y-147831236D01*
X107986297Y-147839079D01*
X107946484Y-147843000D01*
X107193516Y-147843000D01*
X107153703Y-147839079D01*
X107074074Y-147831236D01*
X106920823Y-147784748D01*
X106920820Y-147784747D01*
X106779587Y-147709256D01*
X106655791Y-147607659D01*
X106554194Y-147483863D01*
X106478703Y-147342630D01*
X106478702Y-147342627D01*
X106432214Y-147189376D01*
X106416517Y-147030000D01*
X106432214Y-146870624D01*
X106478702Y-146717373D01*
X106478703Y-146717370D01*
X106554194Y-146576137D01*
X106655791Y-146452341D01*
X106779587Y-146350744D01*
X106920820Y-146275253D01*
X106920823Y-146275252D01*
X107074074Y-146228764D01*
X107153703Y-146220921D01*
X107193516Y-146217000D01*
X107946484Y-146217000D01*
X107986297Y-146220921D01*
X107986297Y-146220921D01*
G37*
G36*
X107986297Y-143680921D02*
G01*
X108065926Y-143688764D01*
X108219177Y-143735252D01*
X108219180Y-143735253D01*
X108360413Y-143810744D01*
X108484209Y-143912341D01*
X108585806Y-144036137D01*
X108661297Y-144177370D01*
X108661298Y-144177373D01*
X108707786Y-144330624D01*
X108723483Y-144490000D01*
X108707786Y-144649376D01*
X108692126Y-144701000D01*
X108661297Y-144802630D01*
X108585806Y-144943863D01*
X108484209Y-145067659D01*
X108360413Y-145169256D01*
X108219180Y-145244747D01*
X108219177Y-145244748D01*
X108065926Y-145291236D01*
X107986297Y-145299079D01*
X107946484Y-145303000D01*
X107193516Y-145303000D01*
X107153703Y-145299079D01*
X107074074Y-145291236D01*
X106920823Y-145244748D01*
X106920820Y-145244747D01*
X106779587Y-145169256D01*
X106655791Y-145067659D01*
X106554194Y-144943863D01*
X106478703Y-144802630D01*
X106447874Y-144701000D01*
X106432214Y-144649376D01*
X106416517Y-144490000D01*
X106432214Y-144330624D01*
X106478702Y-144177373D01*
X106478703Y-144177370D01*
X106554194Y-144036137D01*
X106655791Y-143912341D01*
X106779587Y-143810744D01*
X106920820Y-143735253D01*
X106920823Y-143735252D01*
X107074074Y-143688764D01*
X107153703Y-143680921D01*
X107193516Y-143677000D01*
X107946484Y-143677000D01*
X107986297Y-143680921D01*
X107986297Y-143680921D01*
G37*
G36*
X92747567Y-143680921D02*
G01*
X92827196Y-143688764D01*
X92980447Y-143735252D01*
X92980450Y-143735253D01*
X93121683Y-143810744D01*
X93245479Y-143912341D01*
X93347076Y-144036137D01*
X93422567Y-144177370D01*
X93422568Y-144177373D01*
X93469056Y-144330624D01*
X93484753Y-144490000D01*
X93469056Y-144649376D01*
X93453396Y-144701000D01*
X93422567Y-144802630D01*
X93347076Y-144943863D01*
X93245479Y-145067659D01*
X93121683Y-145169256D01*
X92980450Y-145244747D01*
X92980447Y-145244748D01*
X92827196Y-145291236D01*
X92747567Y-145299079D01*
X92707754Y-145303000D01*
X91952246Y-145303000D01*
X91912433Y-145299079D01*
X91832804Y-145291236D01*
X91679553Y-145244748D01*
X91679550Y-145244747D01*
X91538317Y-145169256D01*
X91414521Y-145067659D01*
X91312924Y-144943863D01*
X91237433Y-144802630D01*
X91206604Y-144701000D01*
X91190944Y-144649376D01*
X91175247Y-144490000D01*
X91190944Y-144330624D01*
X91237432Y-144177373D01*
X91237433Y-144177370D01*
X91312924Y-144036137D01*
X91414521Y-143912341D01*
X91538317Y-143810744D01*
X91679550Y-143735253D01*
X91679553Y-143735252D01*
X91832804Y-143688764D01*
X91912433Y-143680921D01*
X91952246Y-143677000D01*
X92707754Y-143677000D01*
X92747567Y-143680921D01*
X92747567Y-143680921D01*
G37*
G36*
X115451000Y-144701000D02*
G01*
X113549000Y-144701000D01*
X113549000Y-142799000D01*
X115451000Y-142799000D01*
X115451000Y-144701000D01*
X115451000Y-144701000D01*
G37*
G36*
X86451000Y-144701000D02*
G01*
X84549000Y-144701000D01*
X84549000Y-142799000D01*
X86451000Y-142799000D01*
X86451000Y-144701000D01*
X86451000Y-144701000D01*
G37*
G36*
X121233809Y-142499234D02*
G01*
X121379686Y-142559658D01*
X121510971Y-142647380D01*
X121622620Y-142759029D01*
X121710342Y-142890314D01*
X121770766Y-143036191D01*
X121801570Y-143191052D01*
X121801570Y-143348948D01*
X121770766Y-143503809D01*
X121710342Y-143649686D01*
X121622620Y-143780971D01*
X121510971Y-143892620D01*
X121379686Y-143980342D01*
X121233809Y-144040766D01*
X121078949Y-144071570D01*
X120921051Y-144071570D01*
X120766191Y-144040766D01*
X120620314Y-143980342D01*
X120489029Y-143892620D01*
X120377380Y-143780971D01*
X120289658Y-143649686D01*
X120229234Y-143503809D01*
X120198430Y-143348948D01*
X120198430Y-143191052D01*
X120229234Y-143036191D01*
X120289658Y-142890314D01*
X120377380Y-142759029D01*
X120489029Y-142647380D01*
X120620314Y-142559658D01*
X120766191Y-142499234D01*
X120921051Y-142468430D01*
X121078949Y-142468430D01*
X121233809Y-142499234D01*
X121233809Y-142499234D01*
G37*
G36*
X79233809Y-142499234D02*
G01*
X79379686Y-142559658D01*
X79510971Y-142647380D01*
X79622620Y-142759029D01*
X79710342Y-142890314D01*
X79770766Y-143036191D01*
X79801570Y-143191052D01*
X79801570Y-143348948D01*
X79770766Y-143503809D01*
X79710342Y-143649686D01*
X79622620Y-143780971D01*
X79510971Y-143892620D01*
X79379686Y-143980342D01*
X79233809Y-144040766D01*
X79078949Y-144071570D01*
X78921051Y-144071570D01*
X78766191Y-144040766D01*
X78620314Y-143980342D01*
X78489029Y-143892620D01*
X78377380Y-143780971D01*
X78289658Y-143649686D01*
X78229234Y-143503809D01*
X78198430Y-143348948D01*
X78198430Y-143191052D01*
X78229234Y-143036191D01*
X78289658Y-142890314D01*
X78377380Y-142759029D01*
X78489029Y-142647380D01*
X78620314Y-142559658D01*
X78766191Y-142499234D01*
X78921051Y-142468430D01*
X79078949Y-142468430D01*
X79233809Y-142499234D01*
X79233809Y-142499234D01*
G37*
G36*
X92747567Y-141140921D02*
G01*
X92827196Y-141148764D01*
X92980447Y-141195252D01*
X92980450Y-141195253D01*
X93121683Y-141270744D01*
X93245479Y-141372341D01*
X93347076Y-141496137D01*
X93422567Y-141637370D01*
X93422568Y-141637373D01*
X93469056Y-141790624D01*
X93484753Y-141950000D01*
X93469056Y-142109376D01*
X93422568Y-142262627D01*
X93422567Y-142262630D01*
X93347076Y-142403863D01*
X93245479Y-142527659D01*
X93121683Y-142629256D01*
X92980450Y-142704747D01*
X92980447Y-142704748D01*
X92827196Y-142751236D01*
X92748072Y-142759029D01*
X92707754Y-142763000D01*
X91952246Y-142763000D01*
X91911928Y-142759029D01*
X91832804Y-142751236D01*
X91679553Y-142704748D01*
X91679550Y-142704747D01*
X91538317Y-142629256D01*
X91414521Y-142527659D01*
X91312924Y-142403863D01*
X91237433Y-142262630D01*
X91237432Y-142262627D01*
X91190944Y-142109376D01*
X91175247Y-141950000D01*
X91190944Y-141790624D01*
X91237432Y-141637373D01*
X91237433Y-141637370D01*
X91312924Y-141496137D01*
X91414521Y-141372341D01*
X91538317Y-141270744D01*
X91679550Y-141195253D01*
X91679553Y-141195252D01*
X91832804Y-141148764D01*
X91912433Y-141140921D01*
X91952246Y-141137000D01*
X92707754Y-141137000D01*
X92747567Y-141140921D01*
X92747567Y-141140921D01*
G37*
G36*
X107986297Y-141140921D02*
G01*
X108065926Y-141148764D01*
X108219177Y-141195252D01*
X108219180Y-141195253D01*
X108360413Y-141270744D01*
X108484209Y-141372341D01*
X108585806Y-141496137D01*
X108661297Y-141637370D01*
X108661298Y-141637373D01*
X108707786Y-141790624D01*
X108723483Y-141950000D01*
X108707786Y-142109376D01*
X108661298Y-142262627D01*
X108661297Y-142262630D01*
X108585806Y-142403863D01*
X108484209Y-142527659D01*
X108360413Y-142629256D01*
X108219180Y-142704747D01*
X108219177Y-142704748D01*
X108065926Y-142751236D01*
X107986802Y-142759029D01*
X107946484Y-142763000D01*
X107193516Y-142763000D01*
X107153198Y-142759029D01*
X107074074Y-142751236D01*
X106920823Y-142704748D01*
X106920820Y-142704747D01*
X106779587Y-142629256D01*
X106655791Y-142527659D01*
X106554194Y-142403863D01*
X106478703Y-142262630D01*
X106478702Y-142262627D01*
X106432214Y-142109376D01*
X106416517Y-141950000D01*
X106432214Y-141790624D01*
X106478702Y-141637373D01*
X106478703Y-141637370D01*
X106554194Y-141496137D01*
X106655791Y-141372341D01*
X106779587Y-141270744D01*
X106920820Y-141195253D01*
X106920823Y-141195252D01*
X107074074Y-141148764D01*
X107153703Y-141140921D01*
X107193516Y-141137000D01*
X107946484Y-141137000D01*
X107986297Y-141140921D01*
X107986297Y-141140921D01*
G37*
G36*
X79233809Y-139959234D02*
G01*
X79379686Y-140019658D01*
X79510971Y-140107380D01*
X79622620Y-140219029D01*
X79710342Y-140350314D01*
X79770766Y-140496191D01*
X79801570Y-140651052D01*
X79801570Y-140808948D01*
X79770766Y-140963809D01*
X79728041Y-141066957D01*
X79717351Y-141092766D01*
X79710342Y-141109686D01*
X79622620Y-141240971D01*
X79510971Y-141352620D01*
X79379686Y-141440342D01*
X79233809Y-141500766D01*
X79078949Y-141531570D01*
X78921051Y-141531570D01*
X78766191Y-141500766D01*
X78620314Y-141440342D01*
X78489029Y-141352620D01*
X78377380Y-141240971D01*
X78289658Y-141109686D01*
X78282650Y-141092766D01*
X78271959Y-141066957D01*
X78229234Y-140963809D01*
X78198430Y-140808948D01*
X78198430Y-140651052D01*
X78229234Y-140496191D01*
X78289658Y-140350314D01*
X78377380Y-140219029D01*
X78489029Y-140107380D01*
X78620314Y-140019658D01*
X78766191Y-139959234D01*
X78921051Y-139928430D01*
X79078949Y-139928430D01*
X79233809Y-139959234D01*
X79233809Y-139959234D01*
G37*
G36*
X121233809Y-139959234D02*
G01*
X121379686Y-140019658D01*
X121510971Y-140107380D01*
X121622620Y-140219029D01*
X121710342Y-140350314D01*
X121770766Y-140496191D01*
X121801570Y-140651052D01*
X121801570Y-140808948D01*
X121770766Y-140963809D01*
X121728041Y-141066957D01*
X121717351Y-141092766D01*
X121710342Y-141109686D01*
X121622620Y-141240971D01*
X121510971Y-141352620D01*
X121379686Y-141440342D01*
X121233809Y-141500766D01*
X121078949Y-141531570D01*
X120921051Y-141531570D01*
X120766191Y-141500766D01*
X120620314Y-141440342D01*
X120489029Y-141352620D01*
X120377380Y-141240971D01*
X120289658Y-141109686D01*
X120282650Y-141092766D01*
X120271959Y-141066957D01*
X120229234Y-140963809D01*
X120198430Y-140808948D01*
X120198430Y-140651052D01*
X120229234Y-140496191D01*
X120289658Y-140350314D01*
X120377380Y-140219029D01*
X120489029Y-140107380D01*
X120620314Y-140019658D01*
X120766191Y-139959234D01*
X120921051Y-139928430D01*
X121078949Y-139928430D01*
X121233809Y-139959234D01*
X121233809Y-139959234D01*
G37*
G36*
X114777395Y-139335546D02*
G01*
X114950466Y-139407234D01*
X115027818Y-139458919D01*
X115106227Y-139511310D01*
X115238690Y-139643773D01*
X115238691Y-139643775D01*
X115342766Y-139799534D01*
X115414454Y-139972605D01*
X115451000Y-140156333D01*
X115451000Y-140343667D01*
X115414454Y-140527395D01*
X115342766Y-140700466D01*
X115342765Y-140700467D01*
X115238690Y-140856227D01*
X115106227Y-140988690D01*
X115027818Y-141041081D01*
X114950466Y-141092766D01*
X114777395Y-141164454D01*
X114593667Y-141201000D01*
X114406333Y-141201000D01*
X114222605Y-141164454D01*
X114049534Y-141092766D01*
X113972182Y-141041081D01*
X113893773Y-140988690D01*
X113761310Y-140856227D01*
X113657235Y-140700467D01*
X113657234Y-140700466D01*
X113585546Y-140527395D01*
X113549000Y-140343667D01*
X113549000Y-140156333D01*
X113585546Y-139972605D01*
X113657234Y-139799534D01*
X113761309Y-139643775D01*
X113761310Y-139643773D01*
X113893773Y-139511310D01*
X113972182Y-139458919D01*
X114049534Y-139407234D01*
X114222605Y-139335546D01*
X114406333Y-139299000D01*
X114593667Y-139299000D01*
X114777395Y-139335546D01*
X114777395Y-139335546D01*
G37*
G36*
X85777395Y-139335546D02*
G01*
X85950466Y-139407234D01*
X86027818Y-139458919D01*
X86106227Y-139511310D01*
X86238690Y-139643773D01*
X86238691Y-139643775D01*
X86342766Y-139799534D01*
X86414454Y-139972605D01*
X86451000Y-140156333D01*
X86451000Y-140343667D01*
X86414454Y-140527395D01*
X86342766Y-140700466D01*
X86342765Y-140700467D01*
X86238690Y-140856227D01*
X86106227Y-140988690D01*
X86027818Y-141041081D01*
X85950466Y-141092766D01*
X85777395Y-141164454D01*
X85593667Y-141201000D01*
X85406333Y-141201000D01*
X85222605Y-141164454D01*
X85049534Y-141092766D01*
X84972182Y-141041081D01*
X84893773Y-140988690D01*
X84761310Y-140856227D01*
X84657235Y-140700467D01*
X84657234Y-140700466D01*
X84585546Y-140527395D01*
X84549000Y-140343667D01*
X84549000Y-140156333D01*
X84585546Y-139972605D01*
X84657234Y-139799534D01*
X84761309Y-139643775D01*
X84761310Y-139643773D01*
X84893773Y-139511310D01*
X84972182Y-139458919D01*
X85049534Y-139407234D01*
X85222605Y-139335546D01*
X85406333Y-139299000D01*
X85593667Y-139299000D01*
X85777395Y-139335546D01*
X85777395Y-139335546D01*
G37*
G36*
X107986297Y-138600921D02*
G01*
X108065926Y-138608764D01*
X108219177Y-138655252D01*
X108219180Y-138655253D01*
X108360413Y-138730744D01*
X108484209Y-138832341D01*
X108585806Y-138956137D01*
X108661297Y-139097370D01*
X108661298Y-139097373D01*
X108707786Y-139250624D01*
X108723483Y-139410000D01*
X108707786Y-139569376D01*
X108685218Y-139643773D01*
X108661297Y-139722630D01*
X108585806Y-139863863D01*
X108484209Y-139987659D01*
X108360413Y-140089256D01*
X108219180Y-140164747D01*
X108219177Y-140164748D01*
X108065926Y-140211236D01*
X107986802Y-140219029D01*
X107946484Y-140223000D01*
X107193516Y-140223000D01*
X107153198Y-140219029D01*
X107074074Y-140211236D01*
X106920823Y-140164748D01*
X106920820Y-140164747D01*
X106779587Y-140089256D01*
X106655791Y-139987659D01*
X106554194Y-139863863D01*
X106478703Y-139722630D01*
X106454782Y-139643773D01*
X106432214Y-139569376D01*
X106416517Y-139410000D01*
X106432214Y-139250624D01*
X106478702Y-139097373D01*
X106478703Y-139097370D01*
X106554194Y-138956137D01*
X106655791Y-138832341D01*
X106779587Y-138730744D01*
X106920820Y-138655253D01*
X106920823Y-138655252D01*
X107074074Y-138608764D01*
X107153703Y-138600921D01*
X107193516Y-138597000D01*
X107946484Y-138597000D01*
X107986297Y-138600921D01*
X107986297Y-138600921D01*
G37*
G36*
X92747567Y-138600921D02*
G01*
X92827196Y-138608764D01*
X92980447Y-138655252D01*
X92980450Y-138655253D01*
X93121683Y-138730744D01*
X93245479Y-138832341D01*
X93347076Y-138956137D01*
X93422567Y-139097370D01*
X93422568Y-139097373D01*
X93469056Y-139250624D01*
X93484753Y-139410000D01*
X93469056Y-139569376D01*
X93446488Y-139643773D01*
X93422567Y-139722630D01*
X93347076Y-139863863D01*
X93245479Y-139987659D01*
X93121683Y-140089256D01*
X92980450Y-140164747D01*
X92980447Y-140164748D01*
X92827196Y-140211236D01*
X92748072Y-140219029D01*
X92707754Y-140223000D01*
X91952246Y-140223000D01*
X91911928Y-140219029D01*
X91832804Y-140211236D01*
X91679553Y-140164748D01*
X91679550Y-140164747D01*
X91538317Y-140089256D01*
X91414521Y-139987659D01*
X91312924Y-139863863D01*
X91237433Y-139722630D01*
X91213512Y-139643773D01*
X91190944Y-139569376D01*
X91175247Y-139410000D01*
X91190944Y-139250624D01*
X91237432Y-139097373D01*
X91237433Y-139097370D01*
X91312924Y-138956137D01*
X91414521Y-138832341D01*
X91538317Y-138730744D01*
X91679550Y-138655253D01*
X91679553Y-138655252D01*
X91832804Y-138608764D01*
X91912433Y-138600921D01*
X91952246Y-138597000D01*
X92707754Y-138597000D01*
X92747567Y-138600921D01*
X92747567Y-138600921D01*
G37*
G36*
X78654100Y-139052700D02*
G01*
X76951900Y-139052700D01*
X76951900Y-137147300D01*
X78654100Y-137147300D01*
X78654100Y-139052700D01*
X78654100Y-139052700D01*
G37*
G36*
X81448100Y-139052700D02*
G01*
X79745900Y-139052700D01*
X79745900Y-137147300D01*
X81448100Y-137147300D01*
X81448100Y-139052700D01*
X81448100Y-139052700D01*
G37*
G36*
X107986297Y-136060921D02*
G01*
X108065926Y-136068764D01*
X108219177Y-136115252D01*
X108219180Y-136115253D01*
X108360413Y-136190744D01*
X108484209Y-136292341D01*
X108585806Y-136416137D01*
X108661297Y-136557370D01*
X108661298Y-136557373D01*
X108707786Y-136710624D01*
X108723483Y-136870000D01*
X108707786Y-137029376D01*
X108685543Y-137102700D01*
X108661297Y-137182630D01*
X108585806Y-137323863D01*
X108484209Y-137447659D01*
X108360413Y-137549256D01*
X108219180Y-137624747D01*
X108219177Y-137624748D01*
X108065926Y-137671236D01*
X107986297Y-137679079D01*
X107946484Y-137683000D01*
X107193516Y-137683000D01*
X107153703Y-137679079D01*
X107074074Y-137671236D01*
X106920823Y-137624748D01*
X106920820Y-137624747D01*
X106779587Y-137549256D01*
X106655791Y-137447659D01*
X106554194Y-137323863D01*
X106478703Y-137182630D01*
X106454457Y-137102700D01*
X106432214Y-137029376D01*
X106416517Y-136870000D01*
X106432214Y-136710624D01*
X106478702Y-136557373D01*
X106478703Y-136557370D01*
X106554194Y-136416137D01*
X106655791Y-136292341D01*
X106779587Y-136190744D01*
X106920820Y-136115253D01*
X106920823Y-136115252D01*
X107074074Y-136068764D01*
X107153703Y-136060921D01*
X107193516Y-136057000D01*
X107946484Y-136057000D01*
X107986297Y-136060921D01*
X107986297Y-136060921D01*
G37*
G36*
X92747567Y-136060921D02*
G01*
X92827196Y-136068764D01*
X92980447Y-136115252D01*
X92980450Y-136115253D01*
X93121683Y-136190744D01*
X93245479Y-136292341D01*
X93347076Y-136416137D01*
X93422567Y-136557370D01*
X93422568Y-136557373D01*
X93469056Y-136710624D01*
X93484753Y-136870000D01*
X93469056Y-137029376D01*
X93446813Y-137102700D01*
X93422567Y-137182630D01*
X93347076Y-137323863D01*
X93245479Y-137447659D01*
X93121683Y-137549256D01*
X92980450Y-137624747D01*
X92980447Y-137624748D01*
X92827196Y-137671236D01*
X92747567Y-137679079D01*
X92707754Y-137683000D01*
X91952246Y-137683000D01*
X91912433Y-137679079D01*
X91832804Y-137671236D01*
X91679553Y-137624748D01*
X91679550Y-137624747D01*
X91538317Y-137549256D01*
X91414521Y-137447659D01*
X91312924Y-137323863D01*
X91237433Y-137182630D01*
X91213187Y-137102700D01*
X91190944Y-137029376D01*
X91175247Y-136870000D01*
X91190944Y-136710624D01*
X91237432Y-136557373D01*
X91237433Y-136557370D01*
X91312924Y-136416137D01*
X91414521Y-136292341D01*
X91538317Y-136190744D01*
X91679550Y-136115253D01*
X91679553Y-136115252D01*
X91832804Y-136068764D01*
X91912433Y-136060921D01*
X91952246Y-136057000D01*
X92707754Y-136057000D01*
X92747567Y-136060921D01*
X92747567Y-136060921D01*
G37*
G36*
X89838100Y-137102700D02*
G01*
X88135900Y-137102700D01*
X88135900Y-135197300D01*
X89838100Y-135197300D01*
X89838100Y-137102700D01*
X89838100Y-137102700D01*
G37*
G36*
X87044100Y-137102700D02*
G01*
X85341900Y-137102700D01*
X85341900Y-135197300D01*
X87044100Y-135197300D01*
X87044100Y-137102700D01*
X87044100Y-137102700D01*
G37*
G36*
X111901000Y-136901000D02*
G01*
X110099000Y-136901000D01*
X110099000Y-135299000D01*
X111901000Y-135299000D01*
X111901000Y-136901000D01*
X111901000Y-136901000D01*
G37*
G36*
X115301000Y-136901000D02*
G01*
X113499000Y-136901000D01*
X113499000Y-135299000D01*
X115301000Y-135299000D01*
X115301000Y-136901000D01*
X115301000Y-136901000D01*
G37*
G36*
X101348100Y-135252700D02*
G01*
X99645900Y-135252700D01*
X99645900Y-133347300D01*
X101348100Y-133347300D01*
X101348100Y-135252700D01*
X101348100Y-135252700D01*
G37*
G36*
X98554100Y-135252700D02*
G01*
X96851900Y-135252700D01*
X96851900Y-133347300D01*
X98554100Y-133347300D01*
X98554100Y-135252700D01*
X98554100Y-135252700D01*
G37*
G36*
X107986297Y-133520921D02*
G01*
X108065926Y-133528764D01*
X108219177Y-133575252D01*
X108219180Y-133575253D01*
X108360413Y-133650744D01*
X108484209Y-133752341D01*
X108585806Y-133876137D01*
X108661297Y-134017370D01*
X108661298Y-134017373D01*
X108707786Y-134170624D01*
X108723483Y-134330000D01*
X108707786Y-134489376D01*
X108661298Y-134642627D01*
X108661297Y-134642630D01*
X108585806Y-134783863D01*
X108484209Y-134907659D01*
X108360413Y-135009256D01*
X108219180Y-135084747D01*
X108219177Y-135084748D01*
X108065926Y-135131236D01*
X107986297Y-135139079D01*
X107946484Y-135143000D01*
X107193516Y-135143000D01*
X107153703Y-135139079D01*
X107074074Y-135131236D01*
X106920823Y-135084748D01*
X106920820Y-135084747D01*
X106779587Y-135009256D01*
X106655791Y-134907659D01*
X106554194Y-134783863D01*
X106478703Y-134642630D01*
X106478702Y-134642627D01*
X106432214Y-134489376D01*
X106416517Y-134330000D01*
X106432214Y-134170624D01*
X106478702Y-134017373D01*
X106478703Y-134017370D01*
X106554194Y-133876137D01*
X106655791Y-133752341D01*
X106779587Y-133650744D01*
X106920820Y-133575253D01*
X106920823Y-133575252D01*
X107074074Y-133528764D01*
X107153703Y-133520921D01*
X107193516Y-133517000D01*
X107946484Y-133517000D01*
X107986297Y-133520921D01*
X107986297Y-133520921D01*
G37*
G36*
X92747567Y-133520921D02*
G01*
X92827196Y-133528764D01*
X92980447Y-133575252D01*
X92980450Y-133575253D01*
X93121683Y-133650744D01*
X93245479Y-133752341D01*
X93347076Y-133876137D01*
X93422567Y-134017370D01*
X93422568Y-134017373D01*
X93469056Y-134170624D01*
X93484753Y-134330000D01*
X93469056Y-134489376D01*
X93422568Y-134642627D01*
X93422567Y-134642630D01*
X93347076Y-134783863D01*
X93245479Y-134907659D01*
X93121683Y-135009256D01*
X92980450Y-135084747D01*
X92980447Y-135084748D01*
X92827196Y-135131236D01*
X92747567Y-135139079D01*
X92707754Y-135143000D01*
X91952246Y-135143000D01*
X91912433Y-135139079D01*
X91832804Y-135131236D01*
X91679553Y-135084748D01*
X91679550Y-135084747D01*
X91538317Y-135009256D01*
X91414521Y-134907659D01*
X91312924Y-134783863D01*
X91237433Y-134642630D01*
X91237432Y-134642627D01*
X91190944Y-134489376D01*
X91175247Y-134330000D01*
X91190944Y-134170624D01*
X91237432Y-134017373D01*
X91237433Y-134017370D01*
X91312924Y-133876137D01*
X91414521Y-133752341D01*
X91538317Y-133650744D01*
X91679550Y-133575253D01*
X91679553Y-133575252D01*
X91832804Y-133528764D01*
X91912433Y-133520921D01*
X91952246Y-133517000D01*
X92707754Y-133517000D01*
X92747567Y-133520921D01*
X92747567Y-133520921D01*
G37*
G36*
X129341000Y-131181000D02*
G01*
X128555731Y-131181000D01*
X128531345Y-131183402D01*
X128507896Y-131190515D01*
X128486285Y-131202066D01*
X128467343Y-131217611D01*
X128451798Y-131236553D01*
X128440247Y-131258164D01*
X128433134Y-131281613D01*
X128430732Y-131305999D01*
X128433134Y-131330385D01*
X128440247Y-131353834D01*
X128501004Y-131500513D01*
X128551000Y-131751861D01*
X128551000Y-132008139D01*
X128536374Y-132081668D01*
X128533972Y-132106054D01*
X128536374Y-132130440D01*
X128543487Y-132153889D01*
X128555038Y-132175500D01*
X128570583Y-132194442D01*
X128589525Y-132209987D01*
X128611136Y-132221538D01*
X128634584Y-132228651D01*
X128790104Y-132259585D01*
X128958626Y-132329389D01*
X129110291Y-132430728D01*
X129239272Y-132559709D01*
X129340611Y-132711374D01*
X129410415Y-132879896D01*
X129446000Y-133058797D01*
X129446000Y-133241203D01*
X129410415Y-133420104D01*
X129340611Y-133588626D01*
X129239272Y-133740291D01*
X129110291Y-133869272D01*
X128958626Y-133970611D01*
X128790104Y-134040415D01*
X128611203Y-134076000D01*
X128428797Y-134076000D01*
X128249896Y-134040415D01*
X128081374Y-133970611D01*
X127929709Y-133869272D01*
X127800728Y-133740291D01*
X127699389Y-133588626D01*
X127629585Y-133420104D01*
X127598651Y-133264584D01*
X127591538Y-133241136D01*
X127579987Y-133219525D01*
X127564441Y-133200583D01*
X127545499Y-133185038D01*
X127523889Y-133173487D01*
X127500440Y-133166374D01*
X127476054Y-133163972D01*
X127451668Y-133166374D01*
X127378139Y-133181000D01*
X127121861Y-133181000D01*
X126870513Y-133131004D01*
X126633747Y-133032932D01*
X126633746Y-133032932D01*
X126633745Y-133032931D01*
X126420661Y-132890553D01*
X126239447Y-132709339D01*
X126097069Y-132496255D01*
X126097068Y-132496253D01*
X125998996Y-132259487D01*
X125949000Y-132008139D01*
X125949000Y-131751861D01*
X125998996Y-131500513D01*
X126059753Y-131353834D01*
X126066866Y-131330386D01*
X126069268Y-131305999D01*
X126066866Y-131281613D01*
X126059753Y-131258164D01*
X126048202Y-131236554D01*
X126032657Y-131217612D01*
X126013715Y-131202066D01*
X125992104Y-131190515D01*
X125968656Y-131183402D01*
X125944269Y-131181000D01*
X125739000Y-131181000D01*
X125739000Y-127079000D01*
X129341000Y-127079000D01*
X129341000Y-131181000D01*
X129341000Y-131181000D01*
G37*
G36*
X133841000Y-131181000D02*
G01*
X133635731Y-131181000D01*
X133611345Y-131183402D01*
X133587896Y-131190515D01*
X133566285Y-131202066D01*
X133547343Y-131217611D01*
X133531798Y-131236553D01*
X133520247Y-131258164D01*
X133513134Y-131281613D01*
X133510732Y-131305999D01*
X133513134Y-131330385D01*
X133520247Y-131353834D01*
X133581004Y-131500513D01*
X133631000Y-131751861D01*
X133631000Y-132008139D01*
X133581004Y-132259487D01*
X133482932Y-132496253D01*
X133482931Y-132496255D01*
X133340553Y-132709339D01*
X133159339Y-132890553D01*
X132946255Y-133032931D01*
X132946254Y-133032932D01*
X132946253Y-133032932D01*
X132709487Y-133131004D01*
X132458139Y-133181000D01*
X132201861Y-133181000D01*
X132128332Y-133166374D01*
X132103946Y-133163972D01*
X132079560Y-133166374D01*
X132056111Y-133173487D01*
X132034500Y-133185038D01*
X132015558Y-133200583D01*
X132000013Y-133219525D01*
X131988462Y-133241136D01*
X131981349Y-133264584D01*
X131950415Y-133420104D01*
X131880611Y-133588626D01*
X131779272Y-133740291D01*
X131650291Y-133869272D01*
X131498626Y-133970611D01*
X131330104Y-134040415D01*
X131151203Y-134076000D01*
X130968797Y-134076000D01*
X130789896Y-134040415D01*
X130621374Y-133970611D01*
X130469709Y-133869272D01*
X130340728Y-133740291D01*
X130239389Y-133588626D01*
X130169585Y-133420104D01*
X130134000Y-133241203D01*
X130134000Y-133058797D01*
X130169585Y-132879896D01*
X130239389Y-132711374D01*
X130340728Y-132559709D01*
X130469709Y-132430728D01*
X130621374Y-132329389D01*
X130789896Y-132259585D01*
X130945416Y-132228651D01*
X130968864Y-132221538D01*
X130990475Y-132209987D01*
X131009417Y-132194441D01*
X131024962Y-132175499D01*
X131036513Y-132153889D01*
X131043626Y-132130440D01*
X131046028Y-132106054D01*
X131043626Y-132081668D01*
X131029000Y-132008139D01*
X131029000Y-131751861D01*
X131078996Y-131500513D01*
X131139753Y-131353834D01*
X131146866Y-131330386D01*
X131149268Y-131305999D01*
X131146866Y-131281613D01*
X131139753Y-131258164D01*
X131128202Y-131236554D01*
X131112657Y-131217612D01*
X131093715Y-131202066D01*
X131072104Y-131190515D01*
X131048656Y-131183402D01*
X131024269Y-131181000D01*
X130239000Y-131181000D01*
X130239000Y-127079000D01*
X133841000Y-127079000D01*
X133841000Y-131181000D01*
X133841000Y-131181000D01*
G37*
G36*
X81093000Y-133503000D02*
G01*
X79467000Y-133503000D01*
X79467000Y-131877000D01*
X81093000Y-131877000D01*
X81093000Y-133503000D01*
X81093000Y-133503000D01*
G37*
G36*
X78517142Y-131908242D02*
G01*
X78665101Y-131969529D01*
X78798255Y-132058499D01*
X78911501Y-132171745D01*
X79000471Y-132304899D01*
X79061758Y-132452858D01*
X79093000Y-132609925D01*
X79093000Y-132770075D01*
X79061758Y-132927142D01*
X79000471Y-133075101D01*
X78911501Y-133208255D01*
X78798255Y-133321501D01*
X78665101Y-133410471D01*
X78517142Y-133471758D01*
X78360075Y-133503000D01*
X78199925Y-133503000D01*
X78042858Y-133471758D01*
X77894899Y-133410471D01*
X77761745Y-133321501D01*
X77648499Y-133208255D01*
X77559529Y-133075101D01*
X77498242Y-132927142D01*
X77467000Y-132770075D01*
X77467000Y-132609925D01*
X77498242Y-132452858D01*
X77559529Y-132304899D01*
X77648499Y-132171745D01*
X77761745Y-132058499D01*
X77894899Y-131969529D01*
X78042858Y-131908242D01*
X78199925Y-131877000D01*
X78360075Y-131877000D01*
X78517142Y-131908242D01*
X78517142Y-131908242D01*
G37*
G36*
X71954100Y-132952700D02*
G01*
X70251900Y-132952700D01*
X70251900Y-131047300D01*
X71954100Y-131047300D01*
X71954100Y-132952700D01*
X71954100Y-132952700D01*
G37*
G36*
X74748100Y-132952700D02*
G01*
X73045900Y-132952700D01*
X73045900Y-131047300D01*
X74748100Y-131047300D01*
X74748100Y-132952700D01*
X74748100Y-132952700D01*
G37*
G36*
X123481000Y-132836000D02*
G01*
X120839000Y-132836000D01*
X120839000Y-128924000D01*
X123481000Y-128924000D01*
X123481000Y-132836000D01*
X123481000Y-132836000D01*
G37*
G36*
X118781000Y-132836000D02*
G01*
X116139000Y-132836000D01*
X116139000Y-128924000D01*
X118781000Y-128924000D01*
X118781000Y-132836000D01*
X118781000Y-132836000D01*
G37*
G36*
X114081000Y-132836000D02*
G01*
X111439000Y-132836000D01*
X111439000Y-128924000D01*
X114081000Y-128924000D01*
X114081000Y-132836000D01*
X114081000Y-132836000D01*
G37*
G36*
X69352700Y-132828100D02*
G01*
X67447300Y-132828100D01*
X67447300Y-131125900D01*
X69352700Y-131125900D01*
X69352700Y-132828100D01*
X69352700Y-132828100D01*
G37*
G36*
X92747567Y-130980921D02*
G01*
X92827196Y-130988764D01*
X92980447Y-131035252D01*
X92980450Y-131035253D01*
X93121683Y-131110744D01*
X93245479Y-131212341D01*
X93347076Y-131336137D01*
X93422567Y-131477370D01*
X93422568Y-131477373D01*
X93469056Y-131630624D01*
X93484753Y-131790000D01*
X93469056Y-131949376D01*
X93435954Y-132058499D01*
X93422567Y-132102630D01*
X93347076Y-132243863D01*
X93245479Y-132367659D01*
X93121683Y-132469256D01*
X92980450Y-132544747D01*
X92980447Y-132544748D01*
X92827196Y-132591236D01*
X92747567Y-132599079D01*
X92707754Y-132603000D01*
X91952246Y-132603000D01*
X91912433Y-132599079D01*
X91832804Y-132591236D01*
X91679553Y-132544748D01*
X91679550Y-132544747D01*
X91538317Y-132469256D01*
X91414521Y-132367659D01*
X91312924Y-132243863D01*
X91237433Y-132102630D01*
X91224046Y-132058499D01*
X91190944Y-131949376D01*
X91175247Y-131790000D01*
X91190944Y-131630624D01*
X91237432Y-131477373D01*
X91237433Y-131477370D01*
X91312924Y-131336137D01*
X91414521Y-131212341D01*
X91538317Y-131110744D01*
X91679550Y-131035253D01*
X91679553Y-131035252D01*
X91832804Y-130988764D01*
X91912433Y-130980921D01*
X91952246Y-130977000D01*
X92707754Y-130977000D01*
X92747567Y-130980921D01*
X92747567Y-130980921D01*
G37*
G36*
X107986297Y-130980921D02*
G01*
X108065926Y-130988764D01*
X108219177Y-131035252D01*
X108219180Y-131035253D01*
X108360413Y-131110744D01*
X108484209Y-131212341D01*
X108585806Y-131336137D01*
X108661297Y-131477370D01*
X108661298Y-131477373D01*
X108707786Y-131630624D01*
X108723483Y-131790000D01*
X108707786Y-131949376D01*
X108674684Y-132058499D01*
X108661297Y-132102630D01*
X108585806Y-132243863D01*
X108484209Y-132367659D01*
X108360413Y-132469256D01*
X108219180Y-132544747D01*
X108219177Y-132544748D01*
X108065926Y-132591236D01*
X107986297Y-132599079D01*
X107946484Y-132603000D01*
X107193516Y-132603000D01*
X107153703Y-132599079D01*
X107074074Y-132591236D01*
X106920823Y-132544748D01*
X106920820Y-132544747D01*
X106779587Y-132469256D01*
X106655791Y-132367659D01*
X106554194Y-132243863D01*
X106478703Y-132102630D01*
X106465316Y-132058499D01*
X106432214Y-131949376D01*
X106416517Y-131790000D01*
X106432214Y-131630624D01*
X106478702Y-131477373D01*
X106478703Y-131477370D01*
X106554194Y-131336137D01*
X106655791Y-131212341D01*
X106779587Y-131110744D01*
X106920820Y-131035253D01*
X106920823Y-131035252D01*
X107074074Y-130988764D01*
X107153703Y-130980921D01*
X107193516Y-130977000D01*
X107946484Y-130977000D01*
X107986297Y-130980921D01*
X107986297Y-130980921D01*
G37*
G36*
X107986297Y-128440921D02*
G01*
X108065926Y-128448764D01*
X108219177Y-128495252D01*
X108219180Y-128495253D01*
X108360413Y-128570744D01*
X108484209Y-128672341D01*
X108585806Y-128796137D01*
X108661297Y-128937370D01*
X108661298Y-128937373D01*
X108707786Y-129090624D01*
X108723483Y-129250000D01*
X108707786Y-129409376D01*
X108661298Y-129562627D01*
X108661297Y-129562630D01*
X108585806Y-129703863D01*
X108484209Y-129827659D01*
X108360413Y-129929256D01*
X108219180Y-130004747D01*
X108219177Y-130004748D01*
X108065926Y-130051236D01*
X107986297Y-130059079D01*
X107946484Y-130063000D01*
X107193516Y-130063000D01*
X107153703Y-130059079D01*
X107074074Y-130051236D01*
X106920823Y-130004748D01*
X106920820Y-130004747D01*
X106779587Y-129929256D01*
X106655791Y-129827659D01*
X106554194Y-129703863D01*
X106478703Y-129562630D01*
X106478702Y-129562627D01*
X106432214Y-129409376D01*
X106416517Y-129250000D01*
X106432214Y-129090624D01*
X106478702Y-128937373D01*
X106478703Y-128937370D01*
X106554194Y-128796137D01*
X106655791Y-128672341D01*
X106779587Y-128570744D01*
X106920820Y-128495253D01*
X106920823Y-128495252D01*
X107074074Y-128448764D01*
X107153703Y-128440921D01*
X107193516Y-128437000D01*
X107946484Y-128437000D01*
X107986297Y-128440921D01*
X107986297Y-128440921D01*
G37*
G36*
X92747567Y-128440921D02*
G01*
X92827196Y-128448764D01*
X92980447Y-128495252D01*
X92980450Y-128495253D01*
X93121683Y-128570744D01*
X93245479Y-128672341D01*
X93347076Y-128796137D01*
X93422567Y-128937370D01*
X93422568Y-128937373D01*
X93469056Y-129090624D01*
X93484753Y-129250000D01*
X93469056Y-129409376D01*
X93422568Y-129562627D01*
X93422567Y-129562630D01*
X93347076Y-129703863D01*
X93245479Y-129827659D01*
X93121683Y-129929256D01*
X92980450Y-130004747D01*
X92980447Y-130004748D01*
X92827196Y-130051236D01*
X92747567Y-130059079D01*
X92707754Y-130063000D01*
X91952246Y-130063000D01*
X91912433Y-130059079D01*
X91832804Y-130051236D01*
X91679553Y-130004748D01*
X91679550Y-130004747D01*
X91538317Y-129929256D01*
X91414521Y-129827659D01*
X91312924Y-129703863D01*
X91237433Y-129562630D01*
X91237432Y-129562627D01*
X91190944Y-129409376D01*
X91175247Y-129250000D01*
X91190944Y-129090624D01*
X91237432Y-128937373D01*
X91237433Y-128937370D01*
X91312924Y-128796137D01*
X91414521Y-128672341D01*
X91538317Y-128570744D01*
X91679550Y-128495253D01*
X91679553Y-128495252D01*
X91832804Y-128448764D01*
X91912433Y-128440921D01*
X91952246Y-128437000D01*
X92707754Y-128437000D01*
X92747567Y-128440921D01*
X92747567Y-128440921D01*
G37*
G36*
X69352700Y-130034100D02*
G01*
X67447300Y-130034100D01*
X67447300Y-128331900D01*
X69352700Y-128331900D01*
X69352700Y-130034100D01*
X69352700Y-130034100D01*
G37*
G36*
X100451000Y-129451000D02*
G01*
X99349000Y-129451000D01*
X99349000Y-126949000D01*
X100451000Y-126949000D01*
X100451000Y-129451000D01*
X100451000Y-129451000D01*
G37*
G36*
X98151000Y-129451000D02*
G01*
X97049000Y-129451000D01*
X97049000Y-126949000D01*
X98151000Y-126949000D01*
X98151000Y-129451000D01*
X98151000Y-129451000D01*
G37*
G36*
X102751000Y-129451000D02*
G01*
X101649000Y-129451000D01*
X101649000Y-126949000D01*
X102751000Y-126949000D01*
X102751000Y-129451000D01*
X102751000Y-129451000D01*
G37*
G36*
X81639375Y-127120944D02*
G01*
X81792626Y-127167432D01*
X81792629Y-127167433D01*
X81933863Y-127242924D01*
X82057659Y-127344521D01*
X82159256Y-127468317D01*
X82234747Y-127609550D01*
X82234747Y-127609551D01*
X82234748Y-127609553D01*
X82281236Y-127762804D01*
X82293000Y-127882247D01*
X82293000Y-128637753D01*
X82281236Y-128757196D01*
X82269423Y-128796137D01*
X82234747Y-128910450D01*
X82159256Y-129051683D01*
X82057659Y-129175479D01*
X81933863Y-129277076D01*
X81792630Y-129352567D01*
X81792627Y-129352568D01*
X81639376Y-129399056D01*
X81480000Y-129414753D01*
X81320625Y-129399056D01*
X81167374Y-129352568D01*
X81167371Y-129352567D01*
X81026138Y-129277076D01*
X80902342Y-129175479D01*
X80800745Y-129051683D01*
X80725255Y-128910451D01*
X80725255Y-128910450D01*
X80725253Y-128910447D01*
X80678764Y-128757196D01*
X80667000Y-128637753D01*
X80667000Y-127882248D01*
X80678764Y-127762805D01*
X80725252Y-127609554D01*
X80725253Y-127609551D01*
X80800744Y-127468317D01*
X80902341Y-127344521D01*
X81026137Y-127242924D01*
X81167370Y-127167433D01*
X81167373Y-127167432D01*
X81320624Y-127120944D01*
X81480000Y-127105247D01*
X81639375Y-127120944D01*
X81639375Y-127120944D01*
G37*
G36*
X74019375Y-127120944D02*
G01*
X74172626Y-127167432D01*
X74172629Y-127167433D01*
X74313863Y-127242924D01*
X74437659Y-127344521D01*
X74539256Y-127468317D01*
X74614747Y-127609550D01*
X74614747Y-127609551D01*
X74614748Y-127609553D01*
X74661236Y-127762804D01*
X74673000Y-127882247D01*
X74673000Y-128637753D01*
X74661236Y-128757196D01*
X74649423Y-128796137D01*
X74614747Y-128910450D01*
X74539256Y-129051683D01*
X74437659Y-129175479D01*
X74313863Y-129277076D01*
X74172630Y-129352567D01*
X74172627Y-129352568D01*
X74019376Y-129399056D01*
X73860000Y-129414753D01*
X73700625Y-129399056D01*
X73547374Y-129352568D01*
X73547371Y-129352567D01*
X73406138Y-129277076D01*
X73282342Y-129175479D01*
X73180745Y-129051683D01*
X73105255Y-128910451D01*
X73105255Y-128910450D01*
X73105253Y-128910447D01*
X73058764Y-128757196D01*
X73047000Y-128637753D01*
X73047000Y-127882248D01*
X73058764Y-127762805D01*
X73105252Y-127609554D01*
X73105253Y-127609551D01*
X73180744Y-127468317D01*
X73282341Y-127344521D01*
X73406137Y-127242924D01*
X73547370Y-127167433D01*
X73547373Y-127167432D01*
X73700624Y-127120944D01*
X73860000Y-127105247D01*
X74019375Y-127120944D01*
X74019375Y-127120944D01*
G37*
G36*
X76559375Y-127120944D02*
G01*
X76712626Y-127167432D01*
X76712629Y-127167433D01*
X76853863Y-127242924D01*
X76977659Y-127344521D01*
X77079256Y-127468317D01*
X77154747Y-127609550D01*
X77154747Y-127609551D01*
X77154748Y-127609553D01*
X77201236Y-127762804D01*
X77213000Y-127882247D01*
X77213000Y-128637753D01*
X77201236Y-128757196D01*
X77189423Y-128796137D01*
X77154747Y-128910450D01*
X77079256Y-129051683D01*
X76977659Y-129175479D01*
X76853863Y-129277076D01*
X76712630Y-129352567D01*
X76712627Y-129352568D01*
X76559376Y-129399056D01*
X76400000Y-129414753D01*
X76240625Y-129399056D01*
X76087374Y-129352568D01*
X76087371Y-129352567D01*
X75946138Y-129277076D01*
X75822342Y-129175479D01*
X75720745Y-129051683D01*
X75645255Y-128910451D01*
X75645255Y-128910450D01*
X75645253Y-128910447D01*
X75598764Y-128757196D01*
X75587000Y-128637753D01*
X75587000Y-127882248D01*
X75598764Y-127762805D01*
X75645252Y-127609554D01*
X75645253Y-127609551D01*
X75720744Y-127468317D01*
X75822341Y-127344521D01*
X75946137Y-127242924D01*
X76087370Y-127167433D01*
X76087373Y-127167432D01*
X76240624Y-127120944D01*
X76400000Y-127105247D01*
X76559375Y-127120944D01*
X76559375Y-127120944D01*
G37*
G36*
X79099375Y-127120944D02*
G01*
X79252626Y-127167432D01*
X79252629Y-127167433D01*
X79393863Y-127242924D01*
X79517659Y-127344521D01*
X79619256Y-127468317D01*
X79694747Y-127609550D01*
X79694747Y-127609551D01*
X79694748Y-127609553D01*
X79741236Y-127762804D01*
X79753000Y-127882247D01*
X79753000Y-128637753D01*
X79741236Y-128757196D01*
X79729423Y-128796137D01*
X79694747Y-128910450D01*
X79619256Y-129051683D01*
X79517659Y-129175479D01*
X79393863Y-129277076D01*
X79252630Y-129352567D01*
X79252627Y-129352568D01*
X79099376Y-129399056D01*
X78940000Y-129414753D01*
X78780625Y-129399056D01*
X78627374Y-129352568D01*
X78627371Y-129352567D01*
X78486138Y-129277076D01*
X78362342Y-129175479D01*
X78260745Y-129051683D01*
X78185255Y-128910451D01*
X78185255Y-128910450D01*
X78185253Y-128910447D01*
X78138764Y-128757196D01*
X78127000Y-128637753D01*
X78127000Y-127882248D01*
X78138764Y-127762805D01*
X78185252Y-127609554D01*
X78185253Y-127609551D01*
X78260744Y-127468317D01*
X78362341Y-127344521D01*
X78486137Y-127242924D01*
X78627370Y-127167433D01*
X78627373Y-127167432D01*
X78780624Y-127120944D01*
X78940000Y-127105247D01*
X79099375Y-127120944D01*
X79099375Y-127120944D01*
G37*
G36*
X84179375Y-127120944D02*
G01*
X84332626Y-127167432D01*
X84332629Y-127167433D01*
X84473863Y-127242924D01*
X84597659Y-127344521D01*
X84699256Y-127468317D01*
X84774747Y-127609550D01*
X84774747Y-127609551D01*
X84774748Y-127609553D01*
X84821236Y-127762804D01*
X84833000Y-127882247D01*
X84833000Y-128637753D01*
X84821236Y-128757196D01*
X84809423Y-128796137D01*
X84774747Y-128910450D01*
X84699256Y-129051683D01*
X84597659Y-129175479D01*
X84473863Y-129277076D01*
X84332630Y-129352567D01*
X84332627Y-129352568D01*
X84179376Y-129399056D01*
X84020000Y-129414753D01*
X83860625Y-129399056D01*
X83707374Y-129352568D01*
X83707371Y-129352567D01*
X83566138Y-129277076D01*
X83442342Y-129175479D01*
X83340745Y-129051683D01*
X83265255Y-128910451D01*
X83265255Y-128910450D01*
X83265253Y-128910447D01*
X83218764Y-128757196D01*
X83207000Y-128637753D01*
X83207000Y-127882248D01*
X83218764Y-127762805D01*
X83265252Y-127609554D01*
X83265253Y-127609551D01*
X83340744Y-127468317D01*
X83442341Y-127344521D01*
X83566137Y-127242924D01*
X83707370Y-127167433D01*
X83707373Y-127167432D01*
X83860624Y-127120944D01*
X84020000Y-127105247D01*
X84179375Y-127120944D01*
X84179375Y-127120944D01*
G37*
G36*
X72133000Y-129410820D02*
G01*
X70507000Y-129410820D01*
X70507000Y-127109180D01*
X72133000Y-127109180D01*
X72133000Y-129410820D01*
X72133000Y-129410820D01*
G37*
G36*
X92747567Y-125900921D02*
G01*
X92827196Y-125908764D01*
X92980447Y-125955252D01*
X92980450Y-125955253D01*
X93121683Y-126030744D01*
X93245479Y-126132341D01*
X93347076Y-126256137D01*
X93422567Y-126397370D01*
X93422568Y-126397373D01*
X93469056Y-126550624D01*
X93484753Y-126710000D01*
X93469056Y-126869376D01*
X93444902Y-126949000D01*
X93422567Y-127022630D01*
X93347076Y-127163863D01*
X93245479Y-127287659D01*
X93121683Y-127389256D01*
X92980450Y-127464747D01*
X92980447Y-127464748D01*
X92827196Y-127511236D01*
X92747567Y-127519079D01*
X92707754Y-127523000D01*
X91952246Y-127523000D01*
X91912433Y-127519079D01*
X91832804Y-127511236D01*
X91679553Y-127464748D01*
X91679550Y-127464747D01*
X91538317Y-127389256D01*
X91414521Y-127287659D01*
X91312924Y-127163863D01*
X91237433Y-127022630D01*
X91215098Y-126949000D01*
X91190944Y-126869376D01*
X91175247Y-126710000D01*
X91190944Y-126550624D01*
X91237432Y-126397373D01*
X91237433Y-126397370D01*
X91312924Y-126256137D01*
X91414521Y-126132341D01*
X91538317Y-126030744D01*
X91679550Y-125955253D01*
X91679553Y-125955252D01*
X91832804Y-125908764D01*
X91912433Y-125900921D01*
X91952246Y-125897000D01*
X92707754Y-125897000D01*
X92747567Y-125900921D01*
X92747567Y-125900921D01*
G37*
G36*
X107986297Y-125900921D02*
G01*
X108065926Y-125908764D01*
X108219177Y-125955252D01*
X108219180Y-125955253D01*
X108360413Y-126030744D01*
X108484209Y-126132341D01*
X108585806Y-126256137D01*
X108661297Y-126397370D01*
X108661298Y-126397373D01*
X108707786Y-126550624D01*
X108723483Y-126710000D01*
X108707786Y-126869376D01*
X108683632Y-126949000D01*
X108661297Y-127022630D01*
X108585806Y-127163863D01*
X108484209Y-127287659D01*
X108360413Y-127389256D01*
X108219180Y-127464747D01*
X108219177Y-127464748D01*
X108065926Y-127511236D01*
X107986297Y-127519079D01*
X107946484Y-127523000D01*
X107193516Y-127523000D01*
X107153703Y-127519079D01*
X107074074Y-127511236D01*
X106920823Y-127464748D01*
X106920820Y-127464747D01*
X106779587Y-127389256D01*
X106655791Y-127287659D01*
X106554194Y-127163863D01*
X106478703Y-127022630D01*
X106456368Y-126949000D01*
X106432214Y-126869376D01*
X106416517Y-126710000D01*
X106432214Y-126550624D01*
X106478702Y-126397373D01*
X106478703Y-126397370D01*
X106554194Y-126256137D01*
X106655791Y-126132341D01*
X106779587Y-126030744D01*
X106920820Y-125955253D01*
X106920823Y-125955252D01*
X107074074Y-125908764D01*
X107153703Y-125900921D01*
X107193516Y-125897000D01*
X107946484Y-125897000D01*
X107986297Y-125900921D01*
X107986297Y-125900921D01*
G37*
G36*
X92747567Y-123360921D02*
G01*
X92827196Y-123368764D01*
X92980447Y-123415252D01*
X92980450Y-123415253D01*
X93121683Y-123490744D01*
X93245479Y-123592341D01*
X93347076Y-123716137D01*
X93422567Y-123857370D01*
X93422568Y-123857373D01*
X93469056Y-124010624D01*
X93484753Y-124170000D01*
X93469056Y-124329376D01*
X93422568Y-124482627D01*
X93422567Y-124482630D01*
X93347076Y-124623863D01*
X93245479Y-124747659D01*
X93121683Y-124849256D01*
X92980450Y-124924747D01*
X92980447Y-124924748D01*
X92827196Y-124971236D01*
X92747567Y-124979079D01*
X92707754Y-124983000D01*
X91952246Y-124983000D01*
X91912433Y-124979079D01*
X91832804Y-124971236D01*
X91679553Y-124924748D01*
X91679550Y-124924747D01*
X91538317Y-124849256D01*
X91414521Y-124747659D01*
X91312924Y-124623863D01*
X91237433Y-124482630D01*
X91237432Y-124482627D01*
X91190944Y-124329376D01*
X91175247Y-124170000D01*
X91190944Y-124010624D01*
X91237432Y-123857373D01*
X91237433Y-123857370D01*
X91312924Y-123716137D01*
X91414521Y-123592341D01*
X91538317Y-123490744D01*
X91679550Y-123415253D01*
X91679553Y-123415252D01*
X91832804Y-123368764D01*
X91912433Y-123360921D01*
X91952246Y-123357000D01*
X92707754Y-123357000D01*
X92747567Y-123360921D01*
X92747567Y-123360921D01*
G37*
G36*
X107986297Y-123360921D02*
G01*
X108065926Y-123368764D01*
X108219177Y-123415252D01*
X108219180Y-123415253D01*
X108360413Y-123490744D01*
X108484209Y-123592341D01*
X108585806Y-123716137D01*
X108661297Y-123857370D01*
X108661298Y-123857373D01*
X108707786Y-124010624D01*
X108723483Y-124170000D01*
X108707786Y-124329376D01*
X108661298Y-124482627D01*
X108661297Y-124482630D01*
X108585806Y-124623863D01*
X108484209Y-124747659D01*
X108360413Y-124849256D01*
X108219180Y-124924747D01*
X108219177Y-124924748D01*
X108065926Y-124971236D01*
X107986297Y-124979079D01*
X107946484Y-124983000D01*
X107193516Y-124983000D01*
X107153703Y-124979079D01*
X107074074Y-124971236D01*
X106920823Y-124924748D01*
X106920820Y-124924747D01*
X106779587Y-124849256D01*
X106655791Y-124747659D01*
X106554194Y-124623863D01*
X106478703Y-124482630D01*
X106478702Y-124482627D01*
X106432214Y-124329376D01*
X106416517Y-124170000D01*
X106432214Y-124010624D01*
X106478702Y-123857373D01*
X106478703Y-123857370D01*
X106554194Y-123716137D01*
X106655791Y-123592341D01*
X106779587Y-123490744D01*
X106920820Y-123415253D01*
X106920823Y-123415252D01*
X107074074Y-123368764D01*
X107153703Y-123360921D01*
X107193516Y-123357000D01*
X107946484Y-123357000D01*
X107986297Y-123360921D01*
X107986297Y-123360921D01*
G37*
G36*
X101851000Y-123001000D02*
G01*
X97949000Y-123001000D01*
X97949000Y-120499000D01*
X101851000Y-120499000D01*
X101851000Y-123001000D01*
X101851000Y-123001000D01*
G37*
G36*
X106321000Y-117801000D02*
G01*
X103679000Y-117801000D01*
X103679000Y-116699000D01*
X106321000Y-116699000D01*
X106321000Y-117801000D01*
X106321000Y-117801000D01*
G37*
G36*
X96321000Y-117801000D02*
G01*
X93679000Y-117801000D01*
X93679000Y-116699000D01*
X96321000Y-116699000D01*
X96321000Y-117801000D01*
X96321000Y-117801000D01*
G37*
G36*
X106321000Y-113301000D02*
G01*
X103679000Y-113301000D01*
X103679000Y-112199000D01*
X106321000Y-112199000D01*
X106321000Y-113301000D01*
X106321000Y-113301000D01*
G37*
G36*
X96321000Y-113301000D02*
G01*
X93679000Y-113301000D01*
X93679000Y-112199000D01*
X96321000Y-112199000D01*
X96321000Y-113301000D01*
X96321000Y-113301000D01*
G37*
G36*
X102931000Y-110081000D02*
G01*
X101129000Y-110081000D01*
X101129000Y-108479000D01*
X102931000Y-108479000D01*
X102931000Y-110081000D01*
X102931000Y-110081000D01*
G37*
G36*
X99531000Y-110081000D02*
G01*
X97729000Y-110081000D01*
X97729000Y-108479000D01*
X99531000Y-108479000D01*
X99531000Y-110081000D01*
X99531000Y-110081000D01*
G37*
M02*
