M48
; DRILL file {KiCad (5.1.6)-1} date 10/30/20 10:48:15
; FORMAT={-:-/ absolute / metric / decimal}
; #@! TF.CreationDate,2020-10-30T10:48:15-03:00
; #@! TF.GenerationSoftware,Kicad,Pcbnew,(5.1.6)-1
FMAT,2
METRIC
T1C0.400
T2C0.500
T3C0.650
T4C0.762
T5C0.800
T6C0.800
T7C0.998
T8C1.001
T9C1.270
T10C1.300
T11C3.000
%
G90
G05
T1
X67.125Y-157.425
X71.4Y-154.5
X74.75Y-150.0
X74.75Y-151.0
X75.75Y-150.0
X75.75Y-151.0
X75.8Y-138.1
X82.9Y-150.45
X82.9Y-151.3
X83.5Y-155.4
X83.8Y-150.45
X83.8Y-151.3
X84.7Y-150.45
X84.7Y-151.3
X85.6Y-150.45
X85.6Y-151.3
X86.5Y-150.45
X86.5Y-151.3
X86.7Y-155.4
X87.3Y-161.85
X87.3Y-162.7
X88.15Y-122.49
X88.2Y-161.85
X88.2Y-162.7
X118.5Y-154.8
X125.17Y-148.93
X126.45Y-147.82
X133.0Y-156.0
T2
X89.582Y-162.368
T3
X78.28Y-132.69
X80.28Y-132.69
T4
X128.48Y-162.23
X131.02Y-162.23
X128.52Y-133.15
X131.06Y-133.15
X67.87Y-162.03
X70.41Y-162.03
T5
X85.5Y-140.25
X85.5Y-143.75
X114.5Y-140.25
X114.5Y-143.75
T6
X122.0Y-152.72
X122.0Y-155.26
X121.0Y-140.73
X121.0Y-143.27
X75.66Y-152.72
X75.66Y-155.26
X79.0Y-140.73
X79.0Y-143.27
T7
X107.57Y-124.17
X107.57Y-126.71
X107.57Y-129.25
X107.57Y-131.79
X107.57Y-134.33
X107.57Y-136.87
X107.57Y-139.41
T8
X92.33Y-124.17
X92.33Y-126.71
X92.33Y-129.25
X92.33Y-131.79
X92.33Y-134.33
X92.33Y-136.87
X92.33Y-139.41
X92.33Y-141.95
X92.33Y-144.49
X92.33Y-147.03
X92.33Y-149.57
X92.33Y-152.11
X92.33Y-154.65
X92.33Y-157.19
X92.33Y-159.73
X107.57Y-141.95
X107.57Y-144.49
X107.57Y-147.03
X107.57Y-149.57
X107.57Y-152.11
X107.57Y-154.65
X107.57Y-157.19
X107.57Y-159.73
X71.32Y-128.26
X73.86Y-128.26
X76.4Y-128.26
X78.94Y-128.26
X81.48Y-128.26
X84.02Y-128.26
T9
X112.76Y-130.88
X117.46Y-130.88
X122.16Y-130.88
T10
X117.96Y-163.3
X123.04Y-163.3
X127.21Y-163.5
X132.29Y-163.5
X76.76Y-163.3
X81.84Y-163.3
X127.25Y-131.88
X132.33Y-131.88
X66.6Y-163.3
X71.68Y-163.3
T11
X142.0Y-130.5
X142.0Y-153.5
X58.0Y-130.5
X58.0Y-153.5
T0
M30
